<svg width="158" height="43" viewBox="0 0 158 43" fill="none" xmlns="http://www.w3.org/2000/svg">
<rect x="20.7686" y="28.1064" width="6.61148" height="3.27884" fill="#B9AAFD"/>
<rect x="24.625" y="33.5693" width="6.61148" height="3.82531" fill="#1F2333"/>
<rect x="12.5039" y="22.0947" width="6.61148" height="3.27884" fill="#1F2333"/>
<rect x="24.625" y="39.582" width="6.61148" height="2.18589" fill="#B9AAFD"/>
<rect x="16.9111" y="33.5693" width="6.06053" height="3.82531" fill="#1F2333"/>
<rect x="16.9111" y="39.582" width="6.06053" height="2.18589" fill="#1F2333"/>
<rect x="8.64746" y="33.5693" width="6.06053" height="3.82531" fill="#B9AAFD"/>
<rect x="8.64746" y="39.582" width="6.06053" height="2.18589" fill="#1F2333"/>
<rect x="0.382812" y="33.5693" width="6.61148" height="3.82531" fill="#1F2333"/>
<rect x="4.23926" y="28.1064" width="6.61148" height="3.27884" fill="#1F2333"/>
<rect x="0.382812" y="39.582" width="6.61148" height="2.18589" fill="#1F2333"/>
<path d="M42.1201 42.2288V22.0908H46.7141L52.0546 40.7041H52.4279L57.7684 22.0908H62.3623V42.2288H60.0366V23.6731H59.6347L54.3229 42.2288H50.1596L44.8478 23.6731H44.4458V42.2288H42.1201Z" fill="#1F2333"/>
<path d="M73.2798 42.2288V22.0908H85.6548V24.2772H75.6916V31.0091H84.8509V33.1955H75.6916V40.0424H85.7984V42.2288H73.2798Z" fill="#1F2333"/>
<path d="M95.7752 42.2288V22.0908H103.901C105.145 22.0908 106.236 22.3114 107.174 22.7525C108.131 23.1744 108.878 23.7882 109.414 24.5937C109.95 25.38 110.218 26.3294 110.218 27.4418V27.7582C110.218 29.0816 109.902 30.1268 109.27 30.894C108.638 31.6612 107.892 32.179 107.03 32.4475V32.8503C107.72 32.8694 108.284 33.0996 108.725 33.5407C109.184 33.9627 109.414 34.6052 109.414 35.4682V42.2288H107.03V35.7559C107.03 35.1805 106.868 34.7394 106.542 34.4325C106.236 34.1257 105.767 33.9722 105.135 33.9722H98.1871V42.2288H95.7752ZM98.1871 31.7858H103.671C104.992 31.7858 106.006 31.4694 106.715 30.8365C107.442 30.1844 107.806 29.283 107.806 28.1322V27.9308C107.806 26.7801 107.452 25.8883 106.743 25.2554C106.035 24.6033 105.011 24.2772 103.671 24.2772H98.1871V31.7858Z" fill="#1F2333"/>
<path d="M120.205 42.2288V22.0908H122.617V30.8652H123.019L131.518 22.0908H134.734L124.943 32.0447L135.078 42.2288H131.777L123.019 33.2818H122.617V42.2288H120.205Z" fill="#1F2333"/>
<path d="M144.047 42.2288V22.0908H146.459V40.0424H156.623V42.2288H144.047Z" fill="#1F2333"/>
<path d="M1.34881 14V4.2H5.31081C5.92681 4.2 6.46815 4.32133 6.93481 4.564C7.40148 4.80667 7.77015 5.152 8.04081 5.6C8.31148 6.03867 8.44681 6.56133 8.44681 7.168V7.364C8.44681 7.96133 8.30681 8.484 8.02681 8.932C7.75615 9.38 7.38281 9.72533 6.90681 9.968C6.44015 10.2107 5.90815 10.332 5.31081 10.332H3.04281V14H1.34881ZM3.04281 8.806H5.14281C5.62815 8.806 6.01548 8.67533 6.30481 8.414C6.60348 8.15267 6.75281 7.79333 6.75281 7.336V7.196C6.75281 6.73867 6.60815 6.37933 6.31881 6.118C6.02948 5.85667 5.63748 5.726 5.14281 5.726H3.04281V8.806ZM16.1964 14.196C14.983 14.196 14.0124 13.86 13.2844 13.188C12.5657 12.5067 12.2064 11.5313 12.2064 10.262V7.938C12.2064 6.66867 12.5657 5.698 13.2844 5.026C14.0124 4.34467 14.983 4.004 16.1964 4.004C17.419 4.004 18.3897 4.34467 19.1084 5.026C19.827 5.698 20.1864 6.66867 20.1864 7.938V10.262C20.1864 11.5313 19.827 12.5067 19.1084 13.188C18.3897 13.86 17.419 14.196 16.1964 14.196ZM16.1964 12.684C16.9244 12.684 17.489 12.474 17.8904 12.054C18.301 11.6247 18.5064 11.046 18.5064 10.318V7.882C18.5064 7.154 18.301 6.58 17.8904 6.16C17.489 5.73067 16.9244 5.516 16.1964 5.516C15.4777 5.516 14.913 5.73067 14.5024 6.16C14.101 6.58 13.9004 7.154 13.9004 7.882V10.318C13.9004 11.046 14.101 11.6247 14.5024 12.054C14.913 12.474 15.4777 12.684 16.1964 12.684ZM25.2959 14L23.9379 4.2H25.6039L26.6679 12.838H26.9059L28.2779 4.2H31.2039L32.5759 12.838H32.8139L33.8639 4.2H35.5439L34.1719 14H31.2459L29.8599 5.194H29.6219L28.2219 14H25.2959ZM39.5983 14V4.2H45.8423V5.726H41.2923V8.302H45.4503V9.828H41.2923V12.474H45.9123V14H39.5983ZM50.0376 14V4.2H54.2236C54.8396 4.2 55.3763 4.30733 55.8336 4.522C56.291 4.73667 56.6456 5.04 56.8976 5.432C57.159 5.81467 57.2896 6.27667 57.2896 6.818V6.972C57.2896 7.57867 57.145 8.064 56.8556 8.428C56.5663 8.792 56.2163 9.058 55.8056 9.226V9.45C56.1696 9.46867 56.4543 9.59467 56.6596 9.828C56.8743 10.0613 56.9816 10.374 56.9816 10.766V14H55.3016V11.004C55.3016 10.7707 55.2363 10.584 55.1056 10.444C54.9843 10.2947 54.7836 10.22 54.5036 10.22H51.7316V14H50.0376ZM51.7316 8.694H54.0556C54.541 8.694 54.919 8.568 55.1896 8.316C55.4696 8.05467 55.6096 7.70933 55.6096 7.28V7.154C55.6096 6.71533 55.4743 6.37 55.2036 6.118C54.933 5.85667 54.5503 5.726 54.0556 5.726H51.7316V8.694ZM61.5433 14V4.2H67.7873V5.726H63.2373V8.302H67.3953V9.828H63.2373V12.474H67.8573V14H61.5433ZM71.6606 14V12.516H72.9766V5.684H71.6606V4.2H75.6506C76.9573 4.2 77.956 4.53133 78.6466 5.194C79.3373 5.85667 79.6826 6.85067 79.6826 8.176V10.024C79.6826 11.3493 79.3373 12.3433 78.6466 13.006C77.956 13.6687 76.9573 14 75.6506 14H71.6606ZM74.6566 12.474H75.6646C76.458 12.474 77.046 12.2687 77.4286 11.858C77.8113 11.4473 78.0026 10.8547 78.0026 10.08V8.134C78.0026 7.34067 77.8113 6.74333 77.4286 6.342C77.046 5.93133 76.458 5.726 75.6646 5.726H74.6566V12.474ZM89.8595 14V12.516H91.1755V5.684H89.8595V4.2H94.8715C95.4595 4.2 95.9729 4.30267 96.4115 4.508C96.8595 4.704 97.2049 4.98867 97.4475 5.362C97.6995 5.726 97.8255 6.16467 97.8255 6.678V6.804C97.8255 7.252 97.7415 7.62067 97.5735 7.91C97.4055 8.19933 97.2049 8.42333 96.9715 8.582C96.7382 8.74067 96.5142 8.85267 96.2995 8.918V9.156C96.5142 9.212 96.7429 9.31933 96.9855 9.478C97.2375 9.62733 97.4475 9.85133 97.6155 10.15C97.7929 10.4393 97.8815 10.8173 97.8815 11.284V11.424C97.8815 11.956 97.7509 12.418 97.4895 12.81C97.2375 13.1927 96.8875 13.4867 96.4395 13.692C96.0009 13.8973 95.4922 14 94.9135 14H89.8595ZM92.8555 12.474H94.7175C95.1655 12.474 95.5202 12.3667 95.7815 12.152C96.0522 11.928 96.1875 11.6153 96.1875 11.214V11.088C96.1875 10.6867 96.0569 10.3787 95.7955 10.164C95.5342 9.94 95.1749 9.828 94.7175 9.828H92.8555V12.474ZM92.8555 8.302H94.7035C95.1329 8.302 95.4782 8.19467 95.7395 7.98C96.0102 7.76533 96.1455 7.46667 96.1455 7.084V6.944C96.1455 6.56133 96.0102 6.26267 95.7395 6.048C95.4782 5.83333 95.1329 5.726 94.7035 5.726H92.8555V8.302ZM104.454 14V10.542L101.08 4.2H102.97L105.182 8.526H105.42L107.632 4.2H109.508L106.134 10.542V14H104.454Z" fill="#B9AAFD"/>
</svg>
