<svg width="110" height="30" viewBox="0 0 110 30" fill="none" xmlns="http://www.w3.org/2000/svg">
<rect x="15.0547" y="19.7393" width="4.60245" height="2.2825" fill="#B9AAFD"/>
<rect x="17.7393" y="23.5425" width="4.60245" height="2.66292" fill="white"/>
<rect x="9.30176" y="15.5542" width="4.60245" height="2.2825" fill="white"/>
<rect x="17.7393" y="27.7275" width="4.60245" height="1.52167" fill="#B9AAFD"/>
<rect x="12.3691" y="23.5425" width="4.21892" height="2.66292" fill="white"/>
<rect x="12.3691" y="27.7275" width="4.21892" height="1.52167" fill="white"/>
<rect x="6.61621" y="23.5425" width="4.21892" height="2.66292" fill="#B9AAFD"/>
<rect x="6.61621" y="27.7275" width="4.21892" height="1.52167" fill="white"/>
<rect x="0.863281" y="23.5425" width="4.60245" height="2.66292" fill="white"/>
<rect x="3.54883" y="19.7393" width="4.60245" height="2.2825" fill="white"/>
<rect x="0.863281" y="27.7275" width="4.60245" height="1.52167" fill="white"/>
<path d="M29.918 29.5704V15.5518H33.116L36.8337 28.509H37.0935L40.8112 15.5518H44.0092V29.5704H42.3902V16.6532H42.1104L38.4127 29.5704H35.5145L31.8168 16.6532H31.537V29.5704H29.918Z" fill="white"/>
<path d="M51.6091 29.5704V15.5518H60.2238V17.0738H53.2881V21.76H59.6641V23.2821H53.2881V28.0484H60.3237V29.5704H51.6091Z" fill="white"/>
<path d="M67.2689 29.5704V15.5518H72.9254C73.7915 15.5518 74.5511 15.7053 75.204 16.0124C75.8702 16.3061 76.3899 16.7333 76.763 17.2941C77.1361 17.8415 77.3227 18.5024 77.3227 19.2767V19.497C77.3227 20.4182 77.1028 21.1459 76.6631 21.6799C76.2233 22.214 75.7037 22.5744 75.104 22.7614V23.0417C75.5837 23.0551 75.9768 23.2153 76.2833 23.5224C76.6031 23.8161 76.763 24.2634 76.763 24.8642V29.5704H75.104V25.0644C75.104 24.6639 74.9908 24.3568 74.7643 24.1432C74.5511 23.9296 74.2246 23.8228 73.7849 23.8228H68.9479V29.5704H67.2689ZM68.9479 22.3007H72.7655C73.6849 22.3007 74.3912 22.0805 74.8842 21.6399C75.3905 21.1859 75.6437 20.5584 75.6437 19.7574V19.6172C75.6437 18.8161 75.3972 18.1953 74.9042 17.7547C74.4111 17.3008 73.6983 17.0738 72.7655 17.0738H68.9479V22.3007Z" fill="white"/>
<path d="M84.2755 29.5704V15.5518H85.9545V21.6599H86.2343L92.1506 15.5518H94.3892L87.5735 22.481L94.6291 29.5704H92.3305L86.2343 23.3421H85.9545V29.5704H84.2755Z" fill="white"/>
<path d="M100.872 29.5704V15.5518H102.551V28.0484H109.627V29.5704H100.872Z" fill="white"/>
<path d="M1.00645 9V2.17792H3.76451C4.19333 2.17792 4.57017 2.26239 4.89503 2.43131C5.21989 2.60024 5.47653 2.84064 5.66495 3.15251C5.85337 3.45787 5.94758 3.82172 5.94758 4.24404V4.38048C5.94758 4.7963 5.85012 5.16015 5.6552 5.47201C5.46679 5.78388 5.2069 6.02427 4.87554 6.1932C4.55068 6.36213 4.18034 6.44659 3.76451 6.44659H2.18569V9H1.00645ZM2.18569 5.3843H3.64756C3.98542 5.3843 4.25505 5.29334 4.45647 5.11142C4.66438 4.92949 4.76833 4.67935 4.76833 4.36099V4.26353C4.76833 3.94517 4.66763 3.69502 4.46621 3.5131C4.2648 3.33118 3.99192 3.24022 3.64756 3.24022H2.18569V5.3843ZM11.3423 9.13644C10.4976 9.13644 9.82192 8.90254 9.31514 8.43474C8.81486 7.96045 8.56471 7.28149 8.56471 6.39786V4.78006C8.56471 3.89644 8.81486 3.22073 9.31514 2.75293C9.82192 2.27863 10.4976 2.04148 11.3423 2.04148C12.1934 2.04148 12.8691 2.27863 13.3694 2.75293C13.8697 3.22073 14.1198 3.89644 14.1198 4.78006V6.39786C14.1198 7.28149 13.8697 7.96045 13.3694 8.43474C12.8691 8.90254 12.1934 9.13644 11.3423 9.13644ZM11.3423 8.08389C11.8491 8.08389 12.2421 7.93771 12.5215 7.64533C12.8074 7.34646 12.9503 6.94363 12.9503 6.43685V4.74107C12.9503 4.23429 12.8074 3.83471 12.5215 3.54234C12.2421 3.24347 11.8491 3.09403 11.3423 3.09403C10.842 3.09403 10.4489 3.24347 10.163 3.54234C9.88365 3.83471 9.74396 4.23429 9.74396 4.74107V6.43685C9.74396 6.94363 9.88365 7.34646 10.163 7.64533C10.4489 7.93771 10.842 8.08389 11.3423 8.08389ZM17.6768 9L16.7314 2.17792H17.8912L18.6318 8.1911H18.7975L19.7526 2.17792H21.7895L22.7446 8.1911H22.9103L23.6412 2.17792H24.8107L23.8556 9H21.8187L20.8539 2.86988H20.6882L19.7136 9H17.6768ZM27.6331 9V2.17792H31.9797V3.24022H28.8123V5.03345H31.7069V6.09574H28.8123V7.93771H32.0285V9H27.6331ZM34.9002 9V2.17792H37.8142C38.243 2.17792 38.6166 2.25264 38.935 2.40208C39.2533 2.55151 39.5002 2.76267 39.6757 3.03556C39.8576 3.30194 39.9486 3.62355 39.9486 4.00039V4.1076C39.9486 4.52992 39.8478 4.86777 39.6464 5.12116C39.445 5.37455 39.2014 5.55972 38.9155 5.67667V5.83261C39.1689 5.8456 39.3671 5.93331 39.51 6.09574C39.6594 6.25817 39.7341 6.47583 39.7341 6.74871V9H38.5646V6.91439C38.5646 6.75196 38.5192 6.62202 38.4282 6.52456C38.3437 6.42061 38.204 6.36863 38.0091 6.36863H36.0795V9H34.9002ZM36.0795 5.30633H37.6973C38.0351 5.30633 38.2983 5.21862 38.4867 5.0432C38.6816 4.86127 38.7791 4.62088 38.7791 4.322V4.23429C38.7791 3.92892 38.6848 3.68853 38.4964 3.5131C38.308 3.33118 38.0416 3.24022 37.6973 3.24022H36.0795V5.30633ZM42.9097 9V2.17792H47.2563V3.24022H44.0889V5.03345H46.9834V6.09574H44.0889V7.93771H47.305V9H42.9097ZM49.9526 9V7.96694H50.8687V3.21098H49.9526V2.17792H52.7302C53.6398 2.17792 54.335 2.40857 54.8158 2.86988C55.2966 3.33118 55.537 4.02313 55.537 4.94574V6.23219C55.537 7.15479 55.2966 7.84674 54.8158 8.30805C54.335 8.76935 53.6398 9 52.7302 9H49.9526ZM52.0382 7.93771H52.7399C53.2922 7.93771 53.7015 7.79477 53.9679 7.50889C54.2343 7.22301 54.3675 6.81044 54.3675 6.27117V4.9165C54.3675 4.36424 54.2343 3.94841 53.9679 3.66903C53.7015 3.38316 53.2922 3.24022 52.7399 3.24022H52.0382V7.93771ZM62.6214 9V7.96694H63.5376V3.21098H62.6214V2.17792H66.1105C66.5198 2.17792 66.8771 2.24939 67.1825 2.39233C67.4944 2.52877 67.7348 2.72694 67.9037 2.98683C68.0791 3.24022 68.1668 3.54559 68.1668 3.90293V3.99065C68.1668 4.30251 68.1083 4.55915 67.9914 4.76057C67.8744 4.96198 67.7348 5.11791 67.5723 5.22837C67.4099 5.33882 67.254 5.41679 67.1045 5.46227V5.62794C67.254 5.66693 67.4131 5.74165 67.5821 5.8521C67.7575 5.95605 67.9037 6.11199 68.0206 6.3199C68.1441 6.52131 68.2058 6.78445 68.2058 7.10931V7.20677C68.2058 7.57711 68.1148 7.89872 67.9329 8.1716C67.7575 8.43799 67.5139 8.64265 67.202 8.78559C66.8966 8.92853 66.5425 9 66.1397 9H62.6214ZM64.7071 7.93771H66.0033C66.3151 7.93771 66.562 7.86299 66.7439 7.71355C66.9324 7.55762 67.0266 7.33996 67.0266 7.06058V6.97287C67.0266 6.69349 66.9356 6.47908 66.7537 6.32964C66.5718 6.17371 66.3216 6.09574 66.0033 6.09574H64.7071V7.93771ZM64.7071 5.03345H65.9935C66.2924 5.03345 66.5328 4.95873 66.7147 4.8093C66.9031 4.65986 66.9973 4.45195 66.9973 4.18556V4.0881C66.9973 3.82172 66.9031 3.61381 66.7147 3.46437C66.5328 3.31494 66.2924 3.24022 65.9935 3.24022H64.7071V5.03345ZM72.7809 9V6.59278L70.4321 2.17792H71.7478L73.2876 5.18938H73.4533L74.9932 2.17792H76.2991L73.9504 6.59278V9H72.7809Z" fill="#B9AAFD"/>
</svg>
