<svg width="215" height="29" viewBox="0 0 215 29" fill="none" xmlns="http://www.w3.org/2000/svg">
<rect x="133.828" y="8.93213" width="8.58625" height="4.18238" fill="#B9AAFD"/>
<rect x="138.836" y="15.9021" width="8.58624" height="4.87944" fill="white"/>
<rect x="123.095" y="1.2644" width="8.58625" height="4.18238" fill="white"/>
<rect x="138.836" y="23.5708" width="8.58624" height="2.78825" fill="#B9AAFD"/>
<rect x="128.819" y="15.9021" width="7.87072" height="4.87944" fill="white"/>
<rect x="128.819" y="23.5708" width="7.87072" height="2.78825" fill="white"/>
<rect x="118.086" y="15.9021" width="7.87072" height="4.87944" fill="#B9AAFD"/>
<rect x="118.086" y="23.5708" width="7.87072" height="2.78825" fill="white"/>
<rect x="107.354" y="15.9021" width="8.58625" height="4.87944" fill="white"/>
<rect x="112.362" y="8.93213" width="8.58625" height="4.18238" fill="white"/>
<rect x="107.354" y="23.5708" width="8.58625" height="2.78825" fill="white"/>
<path d="M156.009 19.0101V8.93262H158.349L161.07 18.2471H161.261L163.981 8.93262H166.322V19.0101H165.137V9.72442H164.932L162.226 19.0101H160.105L157.399 9.72442H157.194V19.0101H156.009Z" fill="white"/>
<path d="M171.884 19.0101V8.93262H178.189V10.0267H173.113V13.3955H177.78V14.4896H173.113V17.916H178.263V19.0101H171.884Z" fill="white"/>
<path d="M183.346 19.0101V8.93262H187.486C188.12 8.93262 188.675 9.04299 189.153 9.26374C189.641 9.47488 190.021 9.78201 190.294 10.1851C190.567 10.5786 190.704 11.0537 190.704 11.6104V11.7687C190.704 12.431 190.543 12.954 190.221 13.3379C189.899 13.7218 189.519 13.981 189.08 14.1153V14.3169C189.431 14.3265 189.719 14.4417 189.943 14.6624C190.177 14.8736 190.294 15.1951 190.294 15.627V19.0101H189.08V15.7709C189.08 15.483 188.997 15.2623 188.831 15.1087C188.675 14.9551 188.437 14.8784 188.115 14.8784H184.575V19.0101H183.346ZM184.575 13.7842H187.369C188.042 13.7842 188.558 13.6259 188.919 13.3091C189.29 12.9828 189.475 12.5317 189.475 11.9559V11.8551C189.475 11.2792 189.295 10.8329 188.934 10.5162C188.573 10.1899 188.051 10.0267 187.369 10.0267H184.575V13.7842Z" fill="white"/>
<path d="M195.793 19.0101V8.93262H197.022V13.3235H197.226L201.556 8.93262H203.195L198.206 13.9138L203.37 19.0101H201.688L197.226 14.5328H197.022V19.0101H195.793Z" fill="white"/>
<path d="M207.94 19.0101V8.93262H209.169V17.916H214.347V19.0101H207.94Z" fill="white"/>
<path d="M166.231 26.7159L167.248 23.2143H168.213L169.225 26.7159H168.661L168.427 25.8905H167.034L166.8 26.7159H166.231ZM167.171 25.3903H168.29L167.771 23.5495H167.69L167.171 25.3903Z" fill="#B9AAFD"/>
<path d="M170.622 26.7159V23.2143H171.679L172.645 26.3558H172.726V23.2143H173.27V26.7159H172.213L171.247 23.5695H171.166V26.7159H170.622Z" fill="#B9AAFD"/>
<path d="M176.162 26.786C175.908 26.786 175.681 26.7326 175.481 26.6259C175.281 26.5158 175.123 26.3558 175.008 26.1457C174.893 25.9356 174.835 25.6788 174.835 25.3753V24.5549C174.835 24.0981 174.962 23.7496 175.217 23.5095C175.471 23.266 175.815 23.1443 176.248 23.1443C176.675 23.1443 177.004 23.2593 177.234 23.4894C177.465 23.7162 177.58 24.0214 177.58 24.4049V24.4299H177.036V24.3899C177.036 24.2465 177.007 24.1181 176.95 24.0047C176.892 23.888 176.806 23.7963 176.691 23.7296C176.575 23.6629 176.428 23.6295 176.248 23.6295C175.977 23.6295 175.766 23.7112 175.613 23.8746C175.461 24.0347 175.384 24.2581 175.384 24.5449V25.3853C175.384 25.6688 175.461 25.8939 175.613 26.0606C175.766 26.224 175.979 26.3057 176.253 26.3057C176.525 26.3057 176.723 26.2324 176.848 26.0856C176.974 25.9389 177.036 25.7488 177.036 25.5154V25.4503H176.081V24.9851H177.58V26.7159H177.072V26.3608H176.99C176.96 26.4241 176.914 26.4892 176.853 26.5559C176.796 26.6225 176.711 26.6776 176.599 26.7209C176.491 26.7643 176.345 26.786 176.162 26.786Z" fill="#B9AAFD"/>
<path d="M179.202 26.7159V23.2143H179.751V26.2257H181.464V26.7159H179.202Z" fill="#B9AAFD"/>
<path d="M182.882 26.7159V23.2143H185.123V23.7045H183.431V24.71H184.981V25.2002H183.431V26.2257H185.149V26.7159H182.882Z" fill="#B9AAFD"/>
<path d="M188.846 26.7159V23.2143H189.395V26.2257H191.108V26.7159H188.846Z" fill="#B9AAFD"/>
<path d="M192.262 26.7159L193.278 23.2143H194.244L195.256 26.7159H194.691L194.458 25.8905H193.065L192.831 26.7159H192.262ZM193.202 25.3903H194.32L193.802 23.5495H193.721L193.202 25.3903Z" fill="#B9AAFD"/>
<path d="M196.52 26.7159V26.2357H196.998V23.6945H196.52V23.2143H198.325C198.538 23.2143 198.725 23.251 198.884 23.3244C199.043 23.3944 199.167 23.4961 199.255 23.6295C199.347 23.7596 199.392 23.9146 199.392 24.0947V24.1447C199.392 24.3048 199.362 24.4365 199.301 24.5399C199.24 24.6433 199.165 24.7233 199.077 24.78C198.992 24.8367 198.911 24.8767 198.833 24.9001V24.9801C198.911 25.0001 198.994 25.0402 199.082 25.1002C199.174 25.1569 199.25 25.2369 199.311 25.3403C199.375 25.4437 199.408 25.5787 199.408 25.7455V25.7955C199.408 25.9889 199.362 26.154 199.27 26.2907C199.179 26.4275 199.052 26.5325 198.889 26.6059C198.73 26.6792 198.545 26.7159 198.335 26.7159H196.52ZM197.552 26.2257H198.269C198.452 26.2257 198.596 26.1823 198.701 26.0956C198.806 26.0089 198.859 25.8889 198.859 25.7355V25.6905C198.859 25.5371 198.806 25.417 198.701 25.3303C198.599 25.2436 198.455 25.2002 198.269 25.2002H197.552V26.2257ZM197.552 24.705H198.269C198.442 24.705 198.581 24.6633 198.686 24.5799C198.791 24.4932 198.843 24.3765 198.843 24.2298V24.1798C198.843 24.033 198.791 23.918 198.686 23.8346C198.584 23.7479 198.445 23.7045 198.269 23.7045H197.552V24.705Z" fill="#B9AAFD"/>
<path d="M202.148 26.786C201.88 26.786 201.643 26.7393 201.436 26.6459C201.229 26.5525 201.067 26.4158 200.948 26.2357C200.833 26.0523 200.775 25.8305 200.775 25.5704V25.4453H201.319V25.5704C201.319 25.8172 201.394 26.0023 201.543 26.1257C201.695 26.249 201.897 26.3107 202.148 26.3107C202.402 26.3107 202.593 26.259 202.722 26.1557C202.851 26.049 202.915 25.9122 202.915 25.7455C202.915 25.6354 202.885 25.5454 202.824 25.4754C202.763 25.4053 202.676 25.3503 202.564 25.3103C202.453 25.2669 202.319 25.2269 202.163 25.1902L201.975 25.1452C201.748 25.0918 201.55 25.0268 201.38 24.9501C201.214 24.8701 201.085 24.765 200.994 24.635C200.902 24.5049 200.857 24.3382 200.857 24.1347C200.857 23.928 200.907 23.7512 201.009 23.6045C201.114 23.4578 201.258 23.3444 201.441 23.2643C201.624 23.1843 201.839 23.1443 202.087 23.1443C202.334 23.1443 202.554 23.186 202.747 23.2693C202.944 23.3527 203.098 23.4761 203.21 23.6395C203.322 23.8029 203.378 24.008 203.378 24.2548V24.4349H202.834V24.2548C202.834 24.1047 202.802 23.983 202.737 23.8896C202.676 23.7963 202.59 23.7279 202.478 23.6845C202.366 23.6412 202.236 23.6195 202.087 23.6195C201.87 23.6195 201.7 23.6645 201.578 23.7546C201.46 23.8413 201.4 23.963 201.4 24.1197C201.4 24.2265 201.426 24.3148 201.477 24.3849C201.531 24.4516 201.609 24.5066 201.71 24.5499C201.812 24.5933 201.939 24.6316 202.092 24.665L202.28 24.71C202.51 24.76 202.714 24.8251 202.89 24.9051C203.066 24.9818 203.205 25.0868 203.307 25.2202C203.408 25.3536 203.459 25.5254 203.459 25.7355C203.459 25.9456 203.405 26.129 203.296 26.2857C203.191 26.4425 203.041 26.5659 202.844 26.6559C202.647 26.7426 202.415 26.786 202.148 26.786Z" fill="#B9AAFD"/>
<path d="M156.009 26.7157V26.2355H156.487V23.6943H156.009V23.2141H157.813C158.027 23.2141 158.213 23.2508 158.372 23.3242C158.532 23.3942 158.655 23.4959 158.743 23.6293C158.835 23.7594 158.881 23.9144 158.881 24.0945V24.1445C158.881 24.3046 158.85 24.4363 158.789 24.5397C158.728 24.6431 158.654 24.7231 158.565 24.7798C158.481 24.8365 158.399 24.8765 158.321 24.8999V24.9799C158.399 24.9999 158.482 25.0399 158.571 25.1C158.662 25.1567 158.738 25.2367 158.799 25.3401C158.864 25.4435 158.896 25.5785 158.896 25.7453V25.7953C158.896 25.9887 158.85 26.1538 158.759 26.2905C158.667 26.4273 158.54 26.5323 158.377 26.6057C158.218 26.679 158.033 26.7157 157.823 26.7157H156.009ZM157.041 26.2255H157.757C157.94 26.2255 158.084 26.1821 158.189 26.0954C158.294 26.0087 158.347 25.8887 158.347 25.7353V25.6902C158.347 25.5368 158.294 25.4168 158.189 25.3301C158.088 25.2434 157.944 25.2 157.757 25.2H157.041V26.2255ZM157.041 24.7048H157.757C157.93 24.7048 158.069 24.6631 158.174 24.5797C158.279 24.493 158.332 24.3763 158.332 24.2296V24.1796C158.332 24.0328 158.279 23.9178 158.174 23.8344C158.072 23.7477 157.933 23.7043 157.757 23.7043H157.041V24.7048Z" fill="white"/>
<path d="M161.272 26.7157V25.4451L160.037 23.2141H160.657L161.511 24.7998H161.587L162.441 23.2141H163.061L161.826 25.4451V26.7157H161.272Z" fill="white"/>
<path d="M1.03737 18.3657V9.79909H3.93195C4.60401 9.79909 5.15336 9.9204 5.58002 10.163C6.00947 10.4028 6.32737 10.7277 6.53373 11.1376C6.74009 11.5476 6.84327 12.0049 6.84327 12.5096C6.84327 13.0144 6.74009 13.4731 6.53373 13.8858C6.33016 14.2985 6.01505 14.6276 5.58839 14.873C5.16173 15.1156 4.61516 15.2369 3.94868 15.2369H1.87395V14.3167H3.91522C4.37534 14.3167 4.74483 14.2372 5.02369 14.0782C5.30256 13.9193 5.50473 13.7045 5.63022 13.4341C5.75849 13.1608 5.82263 12.8526 5.82263 12.5096C5.82263 12.1666 5.75849 11.8599 5.63022 11.5894C5.50473 11.3189 5.30116 11.107 5.01951 10.9536C4.73786 10.7974 4.36419 10.7193 3.89849 10.7193H2.07473V18.3657H1.03737ZM17.9805 14.0824C17.9805 14.9859 17.8173 15.7667 17.4911 16.4248C17.1648 17.083 16.7172 17.5905 16.1484 17.9474C15.5795 18.3044 14.9297 18.4828 14.1991 18.4828C13.4685 18.4828 12.8187 18.3044 12.2499 17.9474C11.681 17.5905 11.2334 17.083 10.9071 16.4248C10.5809 15.7667 10.4177 14.9859 10.4177 14.0824C10.4177 13.1789 10.5809 12.3981 10.9071 11.74C11.2334 11.0819 11.681 10.5743 12.2499 10.2174C12.8187 9.86044 13.4685 9.68197 14.1991 9.68197C14.9297 9.68197 15.5795 9.86044 16.1484 10.2174C16.7172 10.5743 17.1648 11.0819 17.4911 11.74C17.8173 12.3981 17.9805 13.1789 17.9805 14.0824ZM16.9766 14.0824C16.9766 13.3406 16.8525 12.7146 16.6043 12.2043C16.3589 11.694 16.0257 11.3077 15.6046 11.0456C15.1863 10.7835 14.7178 10.6524 14.1991 10.6524C13.6804 10.6524 13.2105 10.7835 12.7895 11.0456C12.3712 11.3077 12.0379 11.694 11.7897 12.2043C11.5443 12.7146 11.4216 13.3406 11.4216 14.0824C11.4216 14.8242 11.5443 15.4502 11.7897 15.9605C12.0379 16.4709 12.3712 16.8571 12.7895 17.1192C13.2105 17.3813 13.6804 17.5124 14.1991 17.5124C14.7178 17.5124 15.1863 17.3813 15.6046 17.1192C16.0257 16.8571 16.3589 16.4709 16.6043 15.9605C16.8525 15.4502 16.9766 14.8242 16.9766 14.0824ZM23.5188 18.3657L21.1764 9.79909H22.2305L24.0208 16.7762H24.1044L25.9282 9.79909H27.0994L28.9232 16.7762H29.0068L30.7971 9.79909H31.8512L29.5088 18.3657H28.438L26.5473 11.5392H26.4803L24.5897 18.3657H23.5188ZM35.3818 18.3657V9.79909H40.5519V10.7193H36.4191V13.6139H40.2842V14.5342H36.4191V17.4455H40.6188V18.3657H35.3818ZM44.6597 18.3657V9.79909H47.5543C48.2235 9.79909 48.7729 9.91342 49.2023 10.1421C49.6318 10.368 49.9497 10.6789 50.156 11.0749C50.3624 11.4709 50.4656 11.9212 50.4656 12.426C50.4656 12.9307 50.3624 13.3783 50.156 13.7687C49.9497 14.1591 49.6332 14.4658 49.2065 14.6889C48.7799 14.9092 48.2347 15.0194 47.571 15.0194H45.2286V14.0824H47.5375C47.9949 14.0824 48.363 14.0155 48.6418 13.8816C48.9235 13.7478 49.127 13.5581 49.2525 13.3127C49.3808 13.0646 49.4449 12.769 49.4449 12.426C49.4449 12.083 49.3808 11.7832 49.2525 11.5266C49.1242 11.2701 48.9193 11.0721 48.6376 10.9327C48.356 10.7904 47.9837 10.7193 47.5208 10.7193H45.697V18.3657H44.6597ZM48.692 14.5174L50.8002 18.3657H49.5955L47.5208 14.5174H48.692ZM54.4322 18.3657V9.79909H59.6023V10.7193H55.4696V13.6139H59.3346V14.5342H55.4696V17.4455H59.6692V18.3657H54.4322ZM66.3537 18.3657H63.7101V9.79909H66.4708C67.3018 9.79909 68.0129 9.97059 68.6041 10.3136C69.1953 10.6538 69.6485 11.1432 69.9636 11.7818C70.2787 12.4176 70.4362 13.1789 70.4362 14.0657C70.4362 14.958 70.2773 15.7263 69.9594 16.3705C69.6415 17.0118 69.1786 17.5054 68.5707 17.8512C67.9627 18.1942 67.2238 18.3657 66.3537 18.3657ZM64.7475 17.4455H66.2868C66.9951 17.4455 67.5821 17.3088 68.0478 17.0356C68.5135 16.7623 68.8607 16.3733 69.0893 15.8685C69.318 15.3638 69.4323 14.7628 69.4323 14.0657C69.4323 13.3741 69.3194 12.7787 69.0935 12.2796C68.8676 11.7776 68.5302 11.3928 68.0813 11.1251C67.6323 10.8546 67.0732 10.7193 66.4039 10.7193H64.7475V17.4455ZM79.9653 18.3657V9.79909H82.9603C83.557 9.79909 84.0492 9.90227 84.4368 10.1086C84.8244 10.3122 85.1131 10.5869 85.3027 10.9327C85.4923 11.2757 85.5871 11.6563 85.5871 12.0746C85.5871 12.4427 85.5216 12.7467 85.3905 12.9865C85.2623 13.2263 85.0921 13.4159 84.8802 13.5554C84.6711 13.6948 84.4438 13.798 84.1984 13.8649V13.9486C84.4605 13.9653 84.7241 14.0573 84.989 14.2246C85.2539 14.3919 85.4756 14.6318 85.6541 14.9441C85.8325 15.2564 85.9218 15.6385 85.9218 16.0902C85.9218 16.5197 85.8242 16.9059 85.629 17.2489C85.4338 17.5919 85.1256 17.8638 84.7045 18.0646C84.2834 18.2653 83.7355 18.3657 83.0606 18.3657H79.9653ZM81.0026 17.4455H83.0606C83.7383 17.4455 84.2193 17.3144 84.5037 17.0523C84.791 16.7874 84.9346 16.4667 84.9346 16.0902C84.9346 15.8002 84.8607 15.5325 84.7129 15.2871C84.5651 15.0389 84.3546 14.8409 84.0813 14.6931C83.808 14.5425 83.4845 14.4672 83.1108 14.4672H81.0026V17.4455ZM81.0026 13.5637H82.9268C83.2391 13.5637 83.5208 13.5024 83.7717 13.3797C84.0255 13.257 84.2263 13.0841 84.3741 12.861C84.5247 12.6379 84.6 12.3758 84.6 12.0746C84.6 11.6981 84.4689 11.3788 84.2068 11.1167C83.9446 10.8518 83.5291 10.7193 82.9603 10.7193H81.0026V13.5637ZM89.1281 9.79909H90.3161L92.692 13.798H92.7924L95.1683 9.79909H96.3562L93.2609 14.8353V18.3657H92.2235V14.8353L89.1281 9.79909Z" fill="#B9AAFD"/>
</svg>
