<svg width="185" height="12" viewBox="0 0 185 12" fill="none" xmlns="http://www.w3.org/2000/svg">
<path d="M0.884943 11V0.818182H4.90199C5.67424 0.818182 6.33215 0.965672 6.87571 1.26065C7.41927 1.55232 7.83357 1.95833 8.11861 2.47869C8.40696 2.99574 8.55114 3.59233 8.55114 4.26847C8.55114 4.9446 8.4053 5.54119 8.11364 6.05824C7.82197 6.57528 7.39938 6.97798 6.84588 7.26634C6.29569 7.55469 5.6295 7.69886 4.8473 7.69886H2.28693V5.97372H4.49929C4.91359 5.97372 5.25497 5.90246 5.52344 5.75994C5.79522 5.61411 5.9974 5.41359 6.12997 5.15838C6.26586 4.89986 6.33381 4.60322 6.33381 4.26847C6.33381 3.9304 6.26586 3.63542 6.12997 3.38352C5.9974 3.12831 5.79522 2.93111 5.52344 2.7919C5.25166 2.64938 4.90696 2.57812 4.48935 2.57812H3.03764V11H0.884943ZM21.9659 5.90909C21.9659 7.01941 21.7555 7.96402 21.3345 8.7429C20.9169 9.52178 20.3468 10.1167 19.6243 10.5277C18.9051 10.9354 18.0964 11.1392 17.1982 11.1392C16.2933 11.1392 15.4813 10.9337 14.7621 10.5227C14.0429 10.1117 13.4745 9.51681 13.0568 8.73793C12.6392 7.95904 12.4304 7.0161 12.4304 5.90909C12.4304 4.79877 12.6392 3.85417 13.0568 3.07528C13.4745 2.2964 14.0429 1.70312 14.7621 1.29545C15.4813 0.884469 16.2933 0.678977 17.1982 0.678977C18.0964 0.678977 18.9051 0.884469 19.6243 1.29545C20.3468 1.70312 20.9169 2.2964 21.3345 3.07528C21.7555 3.85417 21.9659 4.79877 21.9659 5.90909ZM19.7834 5.90909C19.7834 5.18987 19.6757 4.58333 19.4602 4.08949C19.2481 3.59564 18.9482 3.22112 18.5604 2.96591C18.1726 2.7107 17.7185 2.5831 17.1982 2.5831C16.6778 2.5831 16.2237 2.7107 15.836 2.96591C15.4482 3.22112 15.1466 3.59564 14.9311 4.08949C14.719 4.58333 14.6129 5.18987 14.6129 5.90909C14.6129 6.62831 14.719 7.23485 14.9311 7.72869C15.1466 8.22254 15.4482 8.59706 15.836 8.85227C16.2237 9.10748 16.6778 9.23509 17.1982 9.23509C17.7185 9.23509 18.1726 9.10748 18.5604 8.85227C18.9482 8.59706 19.2481 8.22254 19.4602 7.72869C19.6757 7.23485 19.7834 6.62831 19.7834 5.90909ZM28.1297 11L25.2163 0.818182H27.5679L29.2532 7.89276H29.3378L31.1971 0.818182H33.2106L35.065 7.90767H35.1545L36.8399 0.818182H39.1914L36.2781 11H34.1801L32.2412 4.34304H32.1616L30.2277 11H28.1297ZM43.0036 11V0.818182H49.8644V2.59304H45.1563V5.01918H49.5114V6.79403H45.1563V9.22514H49.8843V11H43.0036ZM54.2359 11V0.818182H58.2529C59.0219 0.818182 59.6781 0.955729 60.2217 1.23082C60.7686 1.5026 61.1845 1.88873 61.4695 2.3892C61.7579 2.88636 61.9021 3.47135 61.9021 4.14418C61.9021 4.82031 61.7562 5.40199 61.4646 5.8892C61.1729 6.37311 60.7503 6.74432 60.1968 7.00284C59.6466 7.26136 58.9804 7.39062 58.1982 7.39062H55.5086V5.66051H57.8502C58.2612 5.66051 58.6026 5.60417 58.8744 5.49148C59.1462 5.37879 59.3483 5.20975 59.4809 4.98438C59.6168 4.759 59.6847 4.47893 59.6847 4.14418C59.6847 3.80611 59.6168 3.52107 59.4809 3.28906C59.3483 3.05705 59.1445 2.88139 58.8694 2.76207C58.5976 2.63944 58.2546 2.57812 57.8403 2.57812H56.3886V11H54.2359ZM59.7345 6.36648L62.265 11H59.8886L57.4127 6.36648H59.7345ZM66.0834 11V0.818182H72.9442V2.59304H68.2361V5.01918H72.5912V6.79403H68.2361V9.22514H72.9641V11H66.0834ZM80.925 11H77.3156V0.818182H80.9548C81.979 0.818182 82.8606 1.02202 83.5997 1.42969C84.3388 1.83404 84.9073 2.41572 85.305 3.17472C85.706 3.93371 85.9066 4.84186 85.9066 5.89915C85.9066 6.95975 85.706 7.87121 85.305 8.63352C84.9073 9.39583 84.3355 9.98082 83.5898 10.3885C82.8474 10.7962 81.9591 11 80.925 11ZM79.4683 9.15554H80.8355C81.4719 9.15554 82.0072 9.04285 82.4414 8.81747C82.8789 8.58878 83.207 8.2358 83.4257 7.75852C83.6478 7.27794 83.7588 6.65814 83.7588 5.89915C83.7588 5.14678 83.6478 4.53196 83.4257 4.05469C83.207 3.57741 82.8805 3.22609 82.4463 3.00071C82.0121 2.77533 81.4769 2.66264 80.8405 2.66264H79.4683V9.15554ZM96.0614 11V0.818182H100.138C100.887 0.818182 101.512 0.929214 102.012 1.15128C102.513 1.37334 102.889 1.68158 103.141 2.07599C103.393 2.46709 103.519 2.91785 103.519 3.42827C103.519 3.82599 103.439 4.17566 103.28 4.47727C103.121 4.77557 102.902 5.02083 102.624 5.21307C102.349 5.40199 102.034 5.53622 101.679 5.61577V5.7152C102.067 5.73177 102.43 5.84115 102.768 6.04332C103.109 6.2455 103.386 6.52888 103.598 6.89347C103.81 7.25473 103.917 7.68561 103.917 8.18608C103.917 8.72633 103.782 9.20857 103.514 9.63281C103.249 10.0537 102.856 10.3868 102.336 10.6321C101.815 10.8774 101.174 11 100.412 11H96.0614ZM98.2141 9.24006H99.9691C100.569 9.24006 101.007 9.12571 101.282 8.89702C101.557 8.66501 101.694 8.35677 101.694 7.9723C101.694 7.69058 101.626 7.442 101.49 7.22656C101.355 7.01113 101.161 6.84209 100.909 6.71946C100.66 6.59683 100.364 6.53551 100.019 6.53551H98.2141V9.24006ZM98.2141 5.07884H99.81C100.105 5.07884 100.367 5.02746 100.596 4.92472C100.828 4.81866 101.01 4.66951 101.142 4.47727C101.278 4.28504 101.346 4.05469 101.346 3.78622C101.346 3.41832 101.215 3.12169 100.953 2.89631C100.695 2.67093 100.327 2.55824 99.8498 2.55824H98.2141V5.07884ZM107.381 0.818182H109.792L112.114 5.20312H112.213L114.535 0.818182H116.946L113.232 7.40057V11H111.094V7.40057L107.381 0.818182Z" fill="#EAEDFF"/>
<path d="M126.682 0.818182H129.337L132.141 7.65909H132.26L135.064 0.818182H137.719V11H135.631V4.37287H135.546L132.911 10.9503H131.49L128.855 4.34801H128.77V11H126.682V0.818182ZM142.153 11V0.818182H149.013V2.59304H144.305V5.01918H148.66V6.79403H144.305V9.22514H149.033V11H142.153ZM153.385 11V0.818182H157.402C158.171 0.818182 158.827 0.955729 159.371 1.23082C159.918 1.5026 160.333 1.88873 160.619 2.3892C160.907 2.88636 161.051 3.47135 161.051 4.14418C161.051 4.82031 160.905 5.40199 160.614 5.8892C160.322 6.37311 159.899 6.74432 159.346 7.00284C158.796 7.26136 158.129 7.39062 157.347 7.39062H154.658V5.66051H156.999C157.41 5.66051 157.752 5.60417 158.023 5.49148C158.295 5.37879 158.497 5.20975 158.63 4.98438C158.766 4.759 158.834 4.47893 158.834 4.14418C158.834 3.80611 158.766 3.52107 158.63 3.28906C158.497 3.05705 158.293 2.88139 158.018 2.76207C157.747 2.63944 157.404 2.57812 156.989 2.57812H155.538V11H153.385ZM158.883 6.36648L161.414 11H159.038L156.562 6.36648H158.883ZM165.232 11V0.818182H167.385V5.30753H167.519L171.183 0.818182H173.764L169.985 5.37713L173.808 11H171.233L168.444 6.81392L167.385 8.10653V11H165.232ZM177.545 11V0.818182H179.697V9.22514H184.062V11H177.545Z" fill="#14100C"/>
</svg>
