<svg width="876" height="156" viewBox="0 0 876 156" fill="none" xmlns="http://www.w3.org/2000/svg">
<path d="M6.36364 124.348V110.348L50.3636 51.6209H6.54545V31.2572H82.5455V45.2572L38.5455 103.985H82.3636V124.348H6.36364ZM94.875 124.348V31.2572H120.148V68.8936H121.42L149.42 31.2572H178.875L147.42 72.7118L179.602 124.348H149.42L128.511 89.4391L120.148 100.348V124.348H94.875ZM237.966 69.8481L230.557 71.9391C229.83 69.8481 228.799 67.9542 227.466 66.2572C226.133 64.5603 224.39 63.2118 222.239 62.2118C220.117 61.2118 217.481 60.7118 214.33 60.7118C209.602 60.7118 205.723 61.833 202.693 64.0754C199.663 66.3178 198.148 69.2118 198.148 72.7572C198.148 75.7572 199.178 78.1966 201.239 80.0754C203.33 81.9239 206.542 83.3936 210.875 84.4845L221.42 87.0754C227.269 88.4997 231.648 90.7572 234.557 93.8481C237.496 96.9391 238.966 100.818 238.966 105.485C238.966 109.424 237.875 112.924 235.693 115.985C233.511 119.045 230.466 121.454 226.557 123.212C222.678 124.939 218.178 125.803 213.057 125.803C206.239 125.803 200.617 124.272 196.193 121.212C191.769 118.121 188.936 113.666 187.693 107.848L195.466 105.939C196.466 110.091 198.42 113.227 201.33 115.348C204.269 117.469 208.133 118.53 212.92 118.53C218.284 118.53 222.572 117.333 225.784 114.939C228.996 112.515 230.602 109.485 230.602 105.848C230.602 103.03 229.663 100.666 227.784 98.7572C225.905 96.8178 223.057 95.3936 219.239 94.4845L207.83 91.7572C201.769 90.3027 197.284 87.9997 194.375 84.8481C191.466 81.6966 190.011 77.7875 190.011 73.1209C190.011 69.2724 191.057 65.8936 193.148 62.9845C195.239 60.0451 198.117 57.7421 201.784 56.0754C205.451 54.4087 209.633 53.5754 214.33 53.5754C220.723 53.5754 225.83 55.03 229.648 57.939C233.496 60.8178 236.269 64.7875 237.966 69.8481ZM262.318 150.53C260.712 150.53 259.212 150.378 257.818 150.075C256.424 149.772 255.318 149.439 254.5 149.075L256.682 141.939C259.439 142.788 261.894 143.091 264.045 142.848C266.197 142.636 268.106 141.666 269.773 139.939C271.439 138.242 272.924 135.636 274.227 132.121L276.773 125.03L251.091 54.53H259.864L280.591 113.666H281.227L301.955 54.53H310.727L281.182 135.394C279.939 138.757 278.409 141.56 276.591 143.803C274.773 146.075 272.667 147.757 270.273 148.848C267.909 149.969 265.258 150.53 262.318 150.53ZM334.648 80.7118V124.348H326.557V54.53H334.42V65.4845H335.148C336.784 61.9087 339.33 59.0451 342.784 56.8936C346.269 54.7118 350.572 53.6209 355.693 53.6209C360.39 53.6209 364.511 54.6057 368.057 56.5754C371.633 58.5148 374.405 61.3784 376.375 65.1663C378.375 68.9542 379.375 73.6057 379.375 79.1209V124.348H371.284V79.6209C371.284 73.8936 369.678 69.3633 366.466 66.03C363.284 62.6966 359.011 61.03 353.648 61.03C349.981 61.03 346.723 61.8178 343.875 63.3936C341.027 64.9694 338.769 67.2421 337.102 70.2118C335.466 73.1512 334.648 76.6512 334.648 80.7118ZM427.955 125.803C421.712 125.803 416.273 124.242 411.636 121.121C407.03 118 403.455 113.727 400.909 108.303C398.364 102.878 397.091 96.6966 397.091 89.7572C397.091 82.7572 398.379 76.53 400.955 71.0754C403.561 65.6209 407.167 61.3481 411.773 58.2572C416.379 55.136 421.727 53.5754 427.818 53.5754C432.485 53.5754 436.712 54.4845 440.5 56.3027C444.288 58.0906 447.409 60.6209 449.864 63.8936C452.348 67.136 453.909 70.9239 454.545 75.2572H446.364C445.515 71.3178 443.47 67.9542 440.227 65.1663C437.015 62.3481 432.924 60.9391 427.955 60.9391C423.5 60.9391 419.561 62.1512 416.136 64.5754C412.712 66.9694 410.03 70.3178 408.091 74.6209C406.182 78.8936 405.227 83.8481 405.227 89.4845C405.227 95.1512 406.167 100.166 408.045 104.53C409.924 108.863 412.561 112.257 415.955 114.712C419.379 117.166 423.379 118.394 427.955 118.394C431.045 118.394 433.864 117.818 436.409 116.666C438.985 115.485 441.136 113.818 442.864 111.666C444.621 109.515 445.803 106.954 446.409 103.985H454.591C453.985 108.197 452.485 111.954 450.091 115.257C447.727 118.53 444.652 121.106 440.864 122.985C437.106 124.863 432.803 125.803 427.955 125.803Z" fill="#FCFDFF"/>
<path d="M524.273 30.9091V124H499V30.9091H524.273ZM572.81 151.636C565.81 151.636 559.81 150.636 554.81 148.636C549.84 146.667 545.977 143.939 543.219 140.455C540.492 137 538.962 133.03 538.628 128.545H562.81C563.052 130.03 563.658 131.227 564.628 132.136C565.598 133.045 566.84 133.697 568.355 134.091C569.901 134.515 571.628 134.727 573.537 134.727C576.78 134.727 579.462 133.939 581.583 132.364C583.734 130.788 584.81 127.939 584.81 123.818V112H584.083C583.174 114.364 581.78 116.379 579.901 118.045C578.022 119.682 575.765 120.939 573.128 121.818C570.492 122.667 567.598 123.091 564.446 123.091C559.477 123.091 554.901 121.939 550.719 119.636C546.568 117.333 543.234 113.682 540.719 108.682C538.234 103.682 536.992 97.1515 536.992 89.0909C536.992 80.6667 538.295 73.8182 540.901 68.5455C543.537 63.2727 546.931 59.4091 551.083 56.9545C555.265 54.5 559.658 53.2727 564.265 53.2727C567.719 53.2727 570.749 53.8788 573.355 55.0909C575.962 56.2727 578.143 57.8636 579.901 59.8636C581.658 61.8333 582.992 64 583.901 66.3636H584.446V54.1818H609.537V123.818C609.537 129.727 608.007 134.742 604.946 138.864C601.916 143.015 597.643 146.182 592.128 148.364C586.613 150.545 580.174 151.636 572.81 151.636ZM573.719 105.273C576.022 105.273 577.992 104.636 579.628 103.364C581.295 102.061 582.568 100.212 583.446 97.8182C584.355 95.3939 584.81 92.4848 584.81 89.0909C584.81 85.6364 584.355 82.6818 583.446 80.2273C582.568 77.7424 581.295 75.8485 579.628 74.5455C577.992 73.2121 576.022 72.5455 573.719 72.5455C571.416 72.5455 569.446 73.2121 567.81 74.5455C566.204 75.8485 564.962 77.7424 564.083 80.2273C563.234 82.6818 562.81 85.6364 562.81 89.0909C562.81 92.5455 563.234 95.4848 564.083 97.9091C564.962 100.303 566.204 102.136 567.81 103.409C569.446 104.652 571.416 105.273 573.719 105.273ZM649.95 84.7273V124H624.859V54.1818H648.677V67.4545H649.404C650.919 63.0303 653.586 59.5606 657.404 57.0455C661.253 54.5303 665.737 53.2727 670.859 53.2727C675.798 53.2727 680.086 54.4091 683.722 56.6818C687.389 58.9242 690.222 62.0151 692.222 65.9545C694.253 69.8939 695.253 74.3939 695.222 79.4545V124H670.131V84.7273C670.162 81.2727 669.283 78.5606 667.495 76.5909C665.737 74.6212 663.283 73.6364 660.131 73.6364C658.071 73.6364 656.268 74.0909 654.722 75C653.207 75.8788 652.04 77.1515 651.222 78.8182C650.404 80.4545 649.98 82.4242 649.95 84.7273ZM710.169 124V54.1818H735.26V124H710.169ZM722.714 46.9091C719.32 46.9091 716.411 45.7879 713.987 43.5455C711.563 41.303 710.35 38.6061 710.35 35.4545C710.35 32.303 711.563 29.6061 713.987 27.3636C716.411 25.1212 719.32 24 722.714 24C726.138 24 729.047 25.1212 731.441 27.3636C733.866 29.6061 735.078 32.303 735.078 35.4545C735.078 38.6061 733.866 41.303 731.441 43.5455C729.047 45.7879 726.138 46.9091 722.714 46.9091ZM792.24 54.1818V72.3636H746.24V54.1818H792.24ZM755.149 37.4545H780.24V101.545C780.24 102.515 780.407 103.333 780.74 104C781.073 104.636 781.588 105.121 782.285 105.455C782.982 105.758 783.876 105.909 784.967 105.909C785.725 105.909 786.604 105.818 787.604 105.636C788.634 105.455 789.392 105.303 789.876 105.182L793.513 122.818C792.392 123.152 790.785 123.561 788.695 124.045C786.634 124.53 784.179 124.848 781.331 125C775.573 125.303 770.74 124.712 766.831 123.227C762.922 121.712 759.982 119.333 758.013 116.091C756.043 112.848 755.088 108.788 755.149 103.909V37.4545ZM837.743 125.273C830.289 125.273 823.864 123.848 818.47 121C813.107 118.121 808.97 114 806.061 108.636C803.183 103.242 801.743 96.7879 801.743 89.2727C801.743 82.0606 803.198 75.7576 806.107 70.3636C809.016 64.9697 813.122 60.7727 818.425 57.7727C823.728 54.7727 829.986 53.2727 837.198 53.2727C842.47 53.2727 847.243 54.0909 851.516 55.7273C855.789 57.3636 859.44 59.7424 862.47 62.8636C865.501 65.9545 867.834 69.7121 869.47 74.1364C871.107 78.5606 871.925 83.5455 871.925 89.0909V94.9091H809.561V81.0909H848.834C848.804 79.0909 848.289 77.3333 847.289 75.8182C846.319 74.2727 845.001 73.0758 843.334 72.2273C841.698 71.3485 839.834 70.9091 837.743 70.9091C835.713 70.9091 833.849 71.3485 832.152 72.2273C830.455 73.0758 829.092 74.2576 828.061 75.7727C827.061 77.2879 826.531 79.0606 826.47 81.0909V96C826.47 98.2424 826.94 100.242 827.88 102C828.819 103.758 830.167 105.136 831.925 106.136C833.683 107.136 835.804 107.636 838.289 107.636C840.016 107.636 841.592 107.394 843.016 106.909C844.47 106.424 845.713 105.727 846.743 104.818C847.773 103.879 848.531 102.758 849.016 101.455H871.925C871.137 106.303 869.273 110.515 866.334 114.091C863.395 117.636 859.501 120.394 854.652 122.364C849.834 124.303 844.198 125.273 837.743 125.273Z" fill="#FCFDFF"/>
</svg>
