<svg width="876" height="164" viewBox="0 0 876 164" fill="none" xmlns="http://www.w3.org/2000/svg">
<path d="M6.36364 124.348V110.348L50.3636 51.6209H6.54545V31.2572H82.5455V45.2572L38.5455 103.985H82.3636V124.348H6.36364ZM94.875 124.348V31.2572H120.148V68.8936H121.42L149.42 31.2572H178.875L147.42 72.7118L179.602 124.348H149.42L128.511 89.4391L120.148 100.348V124.348H94.875ZM237.966 69.8481L230.557 71.9391C229.83 69.8481 228.799 67.9542 227.466 66.2572C226.133 64.5603 224.39 63.2118 222.239 62.2118C220.117 61.2118 217.481 60.7118 214.33 60.7118C209.602 60.7118 205.723 61.833 202.693 64.0754C199.663 66.3178 198.148 69.2118 198.148 72.7572C198.148 75.7572 199.178 78.1966 201.239 80.0754C203.33 81.9239 206.542 83.3936 210.875 84.4845L221.42 87.0754C227.269 88.4997 231.648 90.7572 234.557 93.8481C237.496 96.9391 238.966 100.818 238.966 105.485C238.966 109.424 237.875 112.924 235.693 115.985C233.511 119.045 230.466 121.454 226.557 123.212C222.678 124.939 218.178 125.803 213.057 125.803C206.239 125.803 200.617 124.272 196.193 121.212C191.769 118.121 188.936 113.666 187.693 107.848L195.466 105.939C196.466 110.091 198.42 113.227 201.33 115.348C204.269 117.469 208.133 118.53 212.92 118.53C218.284 118.53 222.572 117.333 225.784 114.939C228.996 112.515 230.602 109.485 230.602 105.848C230.602 103.03 229.663 100.666 227.784 98.7572C225.905 96.8178 223.057 95.3936 219.239 94.4845L207.83 91.7572C201.769 90.3027 197.284 87.9997 194.375 84.8481C191.466 81.6966 190.011 77.7875 190.011 73.1209C190.011 69.2724 191.057 65.8936 193.148 62.9845C195.239 60.0451 198.117 57.7421 201.784 56.0754C205.451 54.4087 209.633 53.5754 214.33 53.5754C220.723 53.5754 225.83 55.03 229.648 57.939C233.496 60.8178 236.269 64.7875 237.966 69.8481ZM262.318 150.53C260.712 150.53 259.212 150.378 257.818 150.075C256.424 149.772 255.318 149.439 254.5 149.075L256.682 141.939C259.439 142.788 261.894 143.091 264.045 142.848C266.197 142.636 268.106 141.666 269.773 139.939C271.439 138.242 272.924 135.636 274.227 132.121L276.773 125.03L251.091 54.53H259.864L280.591 113.666H281.227L301.955 54.53H310.727L281.182 135.394C279.939 138.757 278.409 141.56 276.591 143.803C274.773 146.075 272.667 147.757 270.273 148.848C267.909 149.969 265.258 150.53 262.318 150.53ZM334.648 80.7118V124.348H326.557V54.53H334.42V65.4845H335.148C336.784 61.9087 339.33 59.0451 342.784 56.8936C346.269 54.7118 350.572 53.6209 355.693 53.6209C360.39 53.6209 364.511 54.6057 368.057 56.5754C371.633 58.5148 374.405 61.3784 376.375 65.1663C378.375 68.9542 379.375 73.6057 379.375 79.1209V124.348H371.284V79.6209C371.284 73.8936 369.678 69.3633 366.466 66.03C363.284 62.6966 359.011 61.03 353.648 61.03C349.981 61.03 346.723 61.8178 343.875 63.3936C341.027 64.9694 338.769 67.2421 337.102 70.2118C335.466 73.1512 334.648 76.6512 334.648 80.7118ZM427.955 125.803C421.712 125.803 416.273 124.242 411.636 121.121C407.03 118 403.455 113.727 400.909 108.303C398.364 102.878 397.091 96.6966 397.091 89.7572C397.091 82.7572 398.379 76.53 400.955 71.0754C403.561 65.6209 407.167 61.3481 411.773 58.2572C416.379 55.136 421.727 53.5754 427.818 53.5754C432.485 53.5754 436.712 54.4845 440.5 56.3027C444.288 58.0906 447.409 60.6209 449.864 63.8936C452.348 67.136 453.909 70.9239 454.545 75.2572H446.364C445.515 71.3178 443.47 67.9542 440.227 65.1663C437.015 62.3481 432.924 60.9391 427.955 60.9391C423.5 60.9391 419.561 62.1512 416.136 64.5754C412.712 66.9694 410.03 70.3178 408.091 74.6209C406.182 78.8936 405.227 83.8481 405.227 89.4845C405.227 95.1512 406.167 100.166 408.045 104.53C409.924 108.863 412.561 112.257 415.955 114.712C419.379 117.166 423.379 118.394 427.955 118.394C431.045 118.394 433.864 117.818 436.409 116.666C438.985 115.485 441.136 113.818 442.864 111.666C444.621 109.515 445.803 106.954 446.409 103.985H454.591C453.985 108.197 452.485 111.954 450.091 115.257C447.727 118.53 444.652 121.106 440.864 122.985C437.106 124.863 432.803 125.803 427.955 125.803Z" fill="#FCFDFF"/>
<path d="M524.273 30.9091V124H499V30.9091H524.273ZM572.81 151.636C565.81 151.636 559.81 150.636 554.81 148.636C549.84 146.667 545.977 143.939 543.219 140.455C540.492 137 538.962 133.03 538.628 128.545H562.81C563.052 130.03 563.658 131.227 564.628 132.136C565.598 133.045 566.84 133.697 568.355 134.091C569.901 134.515 571.628 134.727 573.537 134.727C576.78 134.727 579.462 133.939 581.583 132.364C583.734 130.788 584.81 127.939 584.81 123.818V112H584.083C583.174 114.364 581.78 116.379 579.901 118.045C578.022 119.682 575.765 120.939 573.128 121.818C570.492 122.667 567.598 123.091 564.446 123.091C559.477 123.091 554.901 121.939 550.719 119.636C546.568 117.333 543.234 113.682 540.719 108.682C538.234 103.682 536.992 97.1515 536.992 89.0909C536.992 80.6667 538.295 73.8182 540.901 68.5455C543.537 63.2727 546.931 59.4091 551.083 56.9545C555.265 54.5 559.658 53.2727 564.265 53.2727C567.719 53.2727 570.749 53.8788 573.355 55.0909C575.962 56.2727 578.143 57.8636 579.901 59.8636C581.658 61.8333 582.992 64 583.901 66.3636H584.446V54.1818H609.537V123.818C609.537 129.727 608.007 134.742 604.946 138.864C601.916 143.015 597.643 146.182 592.128 148.364C586.613 150.545 580.174 151.636 572.81 151.636ZM573.719 105.273C576.022 105.273 577.992 104.636 579.628 103.364C581.295 102.061 582.568 100.212 583.446 97.8182C584.355 95.3939 584.81 92.4848 584.81 89.0909C584.81 85.6364 584.355 82.6818 583.446 80.2273C582.568 77.7424 581.295 75.8485 579.628 74.5455C577.992 73.2121 576.022 72.5455 573.719 72.5455C571.416 72.5455 569.446 73.2121 567.81 74.5455C566.204 75.8485 564.962 77.7424 564.083 80.2273C563.234 82.6818 562.81 85.6364 562.81 89.0909C562.81 92.5455 563.234 95.4848 564.083 97.9091C564.962 100.303 566.204 102.136 567.81 103.409C569.446 104.652 571.416 105.273 573.719 105.273ZM649.95 84.7273V124H624.859V54.1818H648.677V67.4545H649.404C650.919 63.0303 653.586 59.5606 657.404 57.0455C661.253 54.5303 665.737 53.2727 670.859 53.2727C675.798 53.2727 680.086 54.4091 683.722 56.6818C687.389 58.9242 690.222 62.0151 692.222 65.9545C694.253 69.8939 695.253 74.3939 695.222 79.4545V124H670.131V84.7273C670.162 81.2727 669.283 78.5606 667.495 76.5909C665.737 74.6212 663.283 73.6364 660.131 73.6364C658.071 73.6364 656.268 74.0909 654.722 75C653.207 75.8788 652.04 77.1515 651.222 78.8182C650.404 80.4545 649.98 82.4242 649.95 84.7273ZM710.169 124V54.1818H735.26V124H710.169ZM722.714 46.9091C719.32 46.9091 716.411 45.7879 713.987 43.5455C711.563 41.303 710.35 38.6061 710.35 35.4545C710.35 32.303 711.563 29.6061 713.987 27.3636C716.411 25.1212 719.32 24 722.714 24C726.138 24 729.047 25.1212 731.441 27.3636C733.866 29.6061 735.078 32.303 735.078 35.4545C735.078 38.6061 733.866 41.303 731.441 43.5455C729.047 45.7879 726.138 46.9091 722.714 46.9091ZM792.24 54.1818V72.3636H746.24V54.1818H792.24ZM755.149 37.4545H780.24V101.545C780.24 102.515 780.407 103.333 780.74 104C781.073 104.636 781.588 105.121 782.285 105.455C782.982 105.758 783.876 105.909 784.967 105.909C785.725 105.909 786.604 105.818 787.604 105.636C788.634 105.455 789.392 105.303 789.876 105.182L793.513 122.818C792.392 123.152 790.785 123.561 788.695 124.045C786.634 124.53 784.179 124.848 781.331 125C775.573 125.303 770.74 124.712 766.831 123.227C762.922 121.712 759.982 119.333 758.013 116.091C756.043 112.848 755.088 108.788 755.149 103.909V37.4545ZM837.743 125.273C830.289 125.273 823.864 123.848 818.47 121C813.107 118.121 808.97 114 806.061 108.636C803.183 103.242 801.743 96.7879 801.743 89.2727C801.743 82.0606 803.198 75.7576 806.107 70.3636C809.016 64.9697 813.122 60.7727 818.425 57.7727C823.728 54.7727 829.986 53.2727 837.198 53.2727C842.47 53.2727 847.243 54.0909 851.516 55.7273C855.789 57.3636 859.44 59.7424 862.47 62.8636C865.501 65.9545 867.834 69.7121 869.47 74.1364C871.107 78.5606 871.925 83.5455 871.925 89.0909V94.9091H809.561V81.0909H848.834C848.804 79.0909 848.289 77.3333 847.289 75.8182C846.319 74.2727 845.001 73.0758 843.334 72.2273C841.698 71.3485 839.834 70.9091 837.743 70.9091C835.713 70.9091 833.849 71.3485 832.152 72.2273C830.455 73.0758 829.092 74.2576 828.061 75.7727C827.061 77.2879 826.531 79.0606 826.47 81.0909V96C826.47 98.2424 826.94 100.242 827.88 102C828.819 103.758 830.167 105.136 831.925 106.136C833.683 107.136 835.804 107.636 838.289 107.636C840.016 107.636 841.592 107.394 843.016 106.909C844.47 106.424 845.713 105.727 846.743 104.818C847.773 103.879 848.531 102.758 849.016 101.455H871.925C871.137 106.303 869.273 110.515 866.334 114.091C863.395 117.636 859.501 120.394 854.652 122.364C849.834 124.303 844.198 125.273 837.743 125.273Z" fill="#FCFDFF"/>
<path d="M684.885 155V144.818H688.902C689.674 144.818 690.332 144.966 690.876 145.261C691.419 145.552 691.834 145.958 692.119 146.479C692.407 146.996 692.551 147.592 692.551 148.268C692.551 148.945 692.405 149.541 692.114 150.058C691.822 150.575 691.399 150.978 690.846 151.266C690.296 151.555 689.629 151.699 688.847 151.699H686.287V149.974H688.499C688.914 149.974 689.255 149.902 689.523 149.76C689.795 149.614 689.997 149.414 690.13 149.158C690.266 148.9 690.334 148.603 690.334 148.268C690.334 147.93 690.266 147.635 690.13 147.384C689.997 147.128 689.795 146.931 689.523 146.792C689.252 146.649 688.907 146.578 688.489 146.578H687.038V155H684.885ZM705.966 149.909C705.966 151.019 705.755 151.964 705.335 152.743C704.917 153.522 704.347 154.117 703.624 154.528C702.905 154.935 702.096 155.139 701.198 155.139C700.293 155.139 699.481 154.934 698.762 154.523C698.043 154.112 697.474 153.517 697.057 152.738C696.639 151.959 696.43 151.016 696.43 149.909C696.43 148.799 696.639 147.854 697.057 147.075C697.474 146.296 698.043 145.703 698.762 145.295C699.481 144.884 700.293 144.679 701.198 144.679C702.096 144.679 702.905 144.884 703.624 145.295C704.347 145.703 704.917 146.296 705.335 147.075C705.755 147.854 705.966 148.799 705.966 149.909ZM703.783 149.909C703.783 149.19 703.676 148.583 703.46 148.089C703.248 147.596 702.948 147.221 702.56 146.966C702.173 146.711 701.719 146.583 701.198 146.583C700.678 146.583 700.224 146.711 699.836 146.966C699.448 147.221 699.147 147.596 698.931 148.089C698.719 148.583 698.613 149.19 698.613 149.909C698.613 150.628 698.719 151.235 698.931 151.729C699.147 152.223 699.448 152.597 699.836 152.852C700.224 153.107 700.678 153.235 701.198 153.235C701.719 153.235 702.173 153.107 702.56 152.852C702.948 152.597 703.248 152.223 703.46 151.729C703.676 151.235 703.783 150.628 703.783 149.909ZM712.13 155L709.216 144.818H711.568L713.253 151.893H713.338L715.197 144.818H717.211L719.065 151.908H719.155L720.84 144.818H723.191L720.278 155H718.18L716.241 148.343H716.162L714.228 155H712.13ZM727.004 155V144.818H733.864V146.593H729.156V149.019H733.511V150.794H729.156V153.225H733.884V155H727.004ZM738.236 155V144.818H742.253C743.022 144.818 743.678 144.956 744.222 145.231C744.769 145.503 745.185 145.889 745.47 146.389C745.758 146.886 745.902 147.471 745.902 148.144C745.902 148.82 745.756 149.402 745.465 149.889C745.173 150.373 744.75 150.744 744.197 151.003C743.647 151.261 742.98 151.391 742.198 151.391H739.509V149.661H741.85C742.261 149.661 742.603 149.604 742.874 149.491C743.146 149.379 743.348 149.21 743.481 148.984C743.617 148.759 743.685 148.479 743.685 148.144C743.685 147.806 743.617 147.521 743.481 147.289C743.348 147.057 743.144 146.881 742.869 146.762C742.598 146.639 742.255 146.578 741.84 146.578H740.389V155H738.236ZM743.734 150.366L746.265 155H743.889L741.413 150.366H743.734ZM750.083 155V144.818H756.944V146.593H752.236V149.019H756.591V150.794H752.236V153.225H756.964V155H750.083ZM764.925 155H761.316V144.818H764.955C765.979 144.818 766.861 145.022 767.6 145.43C768.339 145.834 768.907 146.416 769.305 147.175C769.706 147.934 769.907 148.842 769.907 149.899C769.907 150.96 769.706 151.871 769.305 152.634C768.907 153.396 768.336 153.981 767.59 154.388C766.847 154.796 765.959 155 764.925 155ZM763.468 153.156H764.836C765.472 153.156 766.007 153.043 766.441 152.817C766.879 152.589 767.207 152.236 767.426 151.759C767.648 151.278 767.759 150.658 767.759 149.899C767.759 149.147 767.648 148.532 767.426 148.055C767.207 147.577 766.881 147.226 766.446 147.001C766.012 146.775 765.477 146.663 764.841 146.663H763.468V153.156ZM780.061 155V144.818H784.138C784.887 144.818 785.512 144.929 786.012 145.151C786.513 145.373 786.889 145.682 787.141 146.076C787.393 146.467 787.519 146.918 787.519 147.428C787.519 147.826 787.439 148.176 787.28 148.477C787.121 148.776 786.902 149.021 786.624 149.213C786.349 149.402 786.034 149.536 785.679 149.616V149.715C786.067 149.732 786.43 149.841 786.768 150.043C787.109 150.246 787.386 150.529 787.598 150.893C787.81 151.255 787.917 151.686 787.917 152.186C787.917 152.726 787.782 153.209 787.514 153.633C787.249 154.054 786.856 154.387 786.336 154.632C785.815 154.877 785.174 155 784.412 155H780.061ZM782.214 153.24H783.969C784.569 153.24 785.007 153.126 785.282 152.897C785.557 152.665 785.694 152.357 785.694 151.972C785.694 151.691 785.626 151.442 785.49 151.227C785.355 151.011 785.161 150.842 784.909 150.719C784.66 150.597 784.364 150.536 784.019 150.536H782.214V153.24ZM782.214 149.079H783.81C784.105 149.079 784.367 149.027 784.596 148.925C784.828 148.819 785.01 148.67 785.142 148.477C785.278 148.285 785.346 148.055 785.346 147.786C785.346 147.418 785.215 147.122 784.953 146.896C784.695 146.671 784.327 146.558 783.85 146.558H782.214V149.079ZM791.381 144.818H793.792L796.114 149.203H796.213L798.535 144.818H800.946L797.232 151.401V155H795.094V151.401L791.381 144.818Z" fill="#EAEDFF"/>
<path d="M810.682 144.818H813.337L816.141 151.659H816.26L819.064 144.818H821.719V155H819.631V148.373H819.546L816.911 154.95H815.49L812.855 148.348H812.77V155H810.682V144.818ZM826.153 155V144.818H833.013V146.593H828.305V149.019H832.66V150.794H828.305V153.225H833.033V155H826.153ZM837.385 155V144.818H841.402C842.171 144.818 842.827 144.956 843.371 145.231C843.918 145.503 844.333 145.889 844.619 146.389C844.907 146.886 845.051 147.471 845.051 148.144C845.051 148.82 844.905 149.402 844.614 149.889C844.322 150.373 843.899 150.744 843.346 151.003C842.796 151.261 842.129 151.391 841.347 151.391H838.658V149.661H840.999C841.41 149.661 841.752 149.604 842.023 149.491C842.295 149.379 842.497 149.21 842.63 148.984C842.766 148.759 842.834 148.479 842.834 148.144C842.834 147.806 842.766 147.521 842.63 147.289C842.497 147.057 842.293 146.881 842.018 146.762C841.747 146.639 841.404 146.578 840.989 146.578H839.538V155H837.385ZM842.883 150.366L845.414 155H843.038L840.562 150.366H842.883ZM849.232 155V144.818H851.385V149.308H851.519L855.183 144.818H857.764L853.985 149.377L857.808 155H855.233L852.444 150.814L851.385 152.107V155H849.232ZM861.545 155V144.818H863.697V153.225H868.062V155H861.545Z" fill="#14100C"/>
</svg>
