<svg width="165" height="35" viewBox="0 0 165 35" fill="none" xmlns="http://www.w3.org/2000/svg">
<g clip-path="url(#clip0_279_7878)">
<path d="M0 14.8672L14.3148 0.648682V7.75797H28.6295L14.3148 18.4219V29.0859L0 14.8672Z" fill="#EAEDFF"/>
<path d="M50.1017 14.8672L35.7871 29.0859V21.9765H21.4722L35.7871 11.3126V0.648682L50.1017 14.8672Z" fill="#EAEDFF"/>
<path d="M77.9238 27.3517V2.46802H83.9788V12.9901H84.3091L92.5904 2.46802H99.722L90.8412 13.5733L99.8811 27.3517H92.6393L86.4009 17.5707L83.9788 20.6083V27.3517H77.9238Z" fill="#EAEDFF"/>
<path d="M56.4585 27.3517V23.9253L68.6297 7.3524H56.4708V2.46802H76.2874V5.89439L64.1162 22.4673H76.2751V27.3517H56.4585Z" fill="#EAEDFF"/>
<path d="M157.632 27.7403C155.952 27.7403 154.488 27.323 153.24 26.4888C152 25.6545 151.038 24.5124 150.353 23.0624C149.668 21.6125 149.326 19.9601 149.326 18.1052C149.326 16.234 149.672 14.5695 150.365 13.1114C151.067 11.6534 152.037 10.5113 153.277 9.68506C154.516 8.85073 155.956 8.43359 157.595 8.43359C158.85 8.43359 159.988 8.67659 161.008 9.1626C162.027 9.64051 162.867 10.3169 163.527 11.1917C164.196 12.0584 164.616 13.0709 164.788 14.2292H162.586C162.357 13.1762 161.807 12.2771 160.934 11.5319C160.07 10.7786 158.969 10.4019 157.632 10.4019C156.433 10.4019 155.373 10.7259 154.451 11.3739C153.53 12.0138 152.808 12.9089 152.286 14.0591C151.772 15.2012 151.515 16.5256 151.515 18.0322C151.515 19.547 151.768 20.8876 152.274 22.054C152.779 23.2123 153.489 24.1195 154.402 24.7756C155.324 25.4317 156.4 25.7598 157.632 25.7598C158.463 25.7598 159.222 25.6059 159.907 25.2981C160.6 24.9822 161.179 24.5367 161.644 23.9616C162.117 23.3864 162.435 22.702 162.598 21.9082H164.8C164.636 23.0341 164.233 24.0385 163.589 24.9214C162.952 25.7962 162.125 26.4848 161.105 26.9869C160.094 27.4891 158.936 27.7403 157.632 27.7403Z" fill="#EAEDFF"/>
<path d="M134.932 15.6873V27.3515H132.755V8.68879H134.871V11.617H135.067C135.507 10.6612 136.192 9.89571 137.122 9.32061C138.06 8.7374 139.218 8.4458 140.596 8.4458C141.86 8.4458 142.969 8.70906 143.923 9.23556C144.885 9.75398 145.632 10.5194 146.162 11.532C146.7 12.5445 146.969 13.7878 146.969 15.2621V27.3515H144.792V15.3957C144.792 13.8648 144.359 12.6538 143.495 11.7628C142.639 10.8718 141.489 10.4263 140.045 10.4263C139.059 10.4263 138.182 10.6369 137.416 11.0581C136.649 11.4793 136.041 12.0868 135.593 12.8806C135.153 13.6663 134.932 14.6019 134.932 15.6873Z" fill="#EAEDFF"/>
<path d="M117.879 34.3499C117.447 34.3499 117.043 34.3095 116.668 34.2285C116.293 34.1475 115.995 34.0585 115.775 33.9613L116.362 32.0535C117.104 32.2804 117.765 32.3614 118.344 32.2966C118.923 32.24 119.437 31.9808 119.885 31.5188C120.333 31.0654 120.733 30.3687 121.084 29.4292L121.769 27.5337L114.857 8.68872H117.218L122.796 24.4961H122.968L128.545 8.68872H130.906L122.955 30.3039C122.621 31.203 122.209 31.9523 121.72 32.5519C121.23 33.1593 120.664 33.6088 120.019 33.9004C119.383 34.2001 118.67 34.3499 117.879 34.3499Z" fill="#EAEDFF"/>
<path d="M113.736 12.7834L111.743 13.3423C111.547 12.7834 111.27 12.2771 110.911 11.8235C110.552 11.3699 110.083 11.0094 109.504 10.7421C108.933 10.4748 108.224 10.3412 107.376 10.3412C106.103 10.3412 105.06 10.6409 104.244 11.2403C103.429 11.8397 103.021 12.6133 103.021 13.561C103.021 14.3629 103.298 15.015 103.853 15.5171C104.415 16.0113 105.28 16.4041 106.446 16.6957L109.284 17.3883C110.858 17.769 112.036 18.3725 112.819 19.1987C113.61 20.0249 114.006 21.0617 114.006 22.3091C114.006 23.3621 113.712 24.2977 113.125 25.1158C112.538 25.9339 111.718 26.5779 110.666 27.0477C109.622 27.5095 108.411 27.7403 107.033 27.7403C105.198 27.7403 103.686 27.3313 102.495 26.5131C101.304 25.6869 100.542 24.4961 100.208 22.9409L102.299 22.4306C102.568 23.5404 103.094 24.3787 103.877 24.9457C104.668 25.5127 105.708 25.7962 106.997 25.7962C108.44 25.7962 109.594 25.4763 110.458 24.8364C111.323 24.1883 111.755 23.3783 111.755 22.4063C111.755 21.653 111.502 21.0212 110.996 20.5109C110.491 19.9925 109.724 19.6118 108.697 19.3688L105.627 18.6398C103.996 18.251 102.788 17.6353 102.006 16.7929C101.223 15.9505 100.831 14.9056 100.831 13.6582C100.831 12.6295 101.113 11.7263 101.675 10.9487C102.238 10.163 103.013 9.54736 104 9.10185C104.986 8.65635 106.112 8.43359 107.376 8.43359C109.096 8.43359 110.47 8.82239 111.498 9.60001C112.534 10.3695 113.28 11.4306 113.736 12.7834Z" fill="#EAEDFF"/>
</g>
<defs>
<clipPath id="clip0_279_7878">
<rect width="165" height="34" fill="white" transform="translate(0 0.523438)"/>
</clipPath>
</defs>
</svg>
