<svg width="157" height="21" viewBox="0 0 157 21" fill="none" xmlns="http://www.w3.org/2000/svg">
<rect x="21.1465" y="6.33398" width="6.61148" height="3.27884" fill="#B9AAFD"/>
<rect x="25.0029" y="11.7969" width="6.61148" height="3.82531" fill="#1F2333"/>
<rect x="12.8818" y="0.322266" width="6.61148" height="3.27884" fill="#1F2333"/>
<rect x="25.0029" y="17.8096" width="6.61148" height="2.18589" fill="#B9AAFD"/>
<rect x="17.2891" y="11.7969" width="6.06053" height="3.82531" fill="#1F2333"/>
<rect x="17.2891" y="17.8096" width="6.06053" height="2.18589" fill="#1F2333"/>
<rect x="9.02539" y="11.7969" width="6.06053" height="3.82531" fill="#B9AAFD"/>
<rect x="9.02539" y="17.8096" width="6.06053" height="2.18589" fill="#1F2333"/>
<rect x="0.760742" y="11.7969" width="6.61148" height="3.82531" fill="#1F2333"/>
<rect x="4.61719" y="6.33398" width="6.61148" height="3.27884" fill="#1F2333"/>
<rect x="0.760742" y="17.8096" width="6.61148" height="2.18589" fill="#1F2333"/>
<path d="M42.498 20.4564V0.318359H47.092L52.4325 18.9316H52.8058L58.1463 0.318359H62.7403V20.4564H60.4146V1.90063H60.0126L54.7008 20.4564H50.5375L45.2257 1.90063H44.8237V20.4564H42.498Z" fill="#1F2333"/>
<path d="M73.6577 20.4564V0.318359H86.0327V2.50477H76.0695V9.23662H85.2288V11.423H76.0695V18.2699H86.1763V20.4564H73.6577Z" fill="#1F2333"/>
<path d="M96.1532 20.4564V0.318359H104.279C105.523 0.318359 106.614 0.538918 107.552 0.980037C108.509 1.40198 109.256 2.01571 109.792 2.82123C110.328 3.60757 110.595 4.55693 110.595 5.66932V5.98577C110.595 7.30912 110.28 8.35438 109.648 9.12154C109.016 9.88871 108.27 10.4065 107.408 10.675V11.0778C108.098 11.097 108.662 11.3271 109.102 11.7683C109.562 12.1902 109.792 12.8327 109.792 13.6957V20.4564H107.408V13.9834C107.408 13.4081 107.246 12.9669 106.92 12.6601C106.614 12.3532 106.145 12.1998 105.513 12.1998H98.565V20.4564H96.1532ZM98.565 10.0134H104.049C105.37 10.0134 106.384 9.69691 107.093 9.06401C107.82 8.41192 108.184 7.5105 108.184 6.35976V6.15838C108.184 5.00764 107.83 4.11581 107.121 3.4829C106.413 2.83082 105.389 2.50477 104.049 2.50477H98.565V10.0134Z" fill="#1F2333"/>
<path d="M120.583 20.4564V0.318359H122.995V9.09277H123.397L131.896 0.318359H135.112L125.321 10.2723L135.456 20.4564H132.154L123.397 11.5093H122.995V20.4564H120.583Z" fill="#1F2333"/>
<path d="M144.425 20.4564V0.318359H146.837V18.2699H157.001V20.4564H144.425Z" fill="#1F2333"/>
</svg>
