<svg width="986" height="301" viewBox="0 0 986 301" fill="none" xmlns="http://www.w3.org/2000/svg">
<path fill-rule="evenodd" clip-rule="evenodd" d="M125.591 11.2717C124.656 5.74694 132.434 3.51385 134.571 8.69353L138.739 18.7933C138.869 19.1075 138.968 19.4257 139.038 19.7449C149.034 17.3351 159.103 16.1214 169.073 16.0274C169.063 15.6987 169.082 15.364 169.132 15.0255L170.721 4.24289C171.539 -1.30059 179.626 -1.02076 180.059 4.56595L180.9 15.4327C180.926 15.775 180.922 16.1115 180.889 16.4399C191.029 17.2444 200.993 19.1993 210.596 22.2215C210.688 21.9058 210.809 21.5932 210.961 21.2868L215.815 11.5042C218.305 6.4846 225.91 9.24995 224.595 14.6968L222.032 25.3125C221.952 25.6448 221.844 25.9622 221.712 26.2633C231.042 30.1262 239.934 35.0326 248.2 40.8983C248.38 40.6362 248.587 40.3853 248.818 40.1488L256.457 32.3446C260.377 28.3403 266.755 33.3205 263.821 38.0943L258.103 47.3979C257.934 47.6742 257.744 47.9301 257.539 48.1651C265.936 55.3155 273.512 63.5538 280.025 72.7729C280.009 71.8849 280.004 71.003 279.999 70.1363L279.999 70.132L279.998 69.9785C279.978 65.5575 283.976 62.1592 288.506 61.5258C290.671 61.2386 292.871 61.6777 294.759 62.7746C296.648 63.8714 298.12 65.564 298.944 67.5869C301.522 74.1459 301.957 81.3528 300.188 88.1745C300.043 88.789 299.873 89.403 299.68 90.0988L299.68 90.0994L299.679 90.1026L299.676 90.1167C299.603 90.3775 299.528 90.6498 299.45 90.938C306.071 94.6703 311.263 100.499 314.208 107.507C316.574 113.15 314.33 118.913 309.115 121.201C306.429 122.356 303.798 122.052 301.389 120.79C303.519 130.169 304.601 139.604 304.698 148.953C304.978 148.952 305.262 148.972 305.548 149.014L316.33 150.604C321.873 151.421 321.594 159.509 316.007 159.941L305.141 160.782C304.855 160.804 304.573 160.805 304.297 160.785C303.5 170.939 301.55 180.917 298.53 190.534C298.785 190.617 299.038 190.721 299.287 190.844L309.069 195.697C314.088 198.187 311.323 205.793 305.876 204.478L295.262 201.915C294.994 201.85 294.736 201.767 294.488 201.669C290.624 211.015 285.712 219.922 279.839 228.2C280.042 228.351 280.238 228.519 280.425 228.702L288.228 236.339C292.232 240.259 287.252 246.638 282.478 243.704L273.176 237.987C272.959 237.853 272.755 237.708 272.563 237.552C266.054 245.197 258.643 252.16 250.412 258.261C250.552 258.462 250.681 258.673 250.798 258.897L255.849 268.553C258.446 273.518 251.738 278.045 248.105 273.78L241.038 265.484C240.874 265.291 240.725 265.091 240.592 264.885C233.637 269.14 226.194 272.819 218.302 275.835C216.575 276.494 214.843 277.116 213.107 277.7C213.177 277.931 213.234 278.168 213.275 278.413L215.099 289.183C216.035 294.708 208.257 296.941 206.119 291.762L201.952 281.663C201.859 281.439 201.782 281.213 201.72 280.985C191.703 283.404 181.611 284.621 171.618 284.713C171.614 284.95 171.594 285.19 171.559 285.432L169.969 296.212C169.152 301.756 161.064 301.476 160.632 295.889L159.791 285.025C159.772 284.779 159.769 284.536 159.781 284.297C149.62 283.487 139.635 281.522 130.014 278.486C129.935 278.716 129.84 278.945 129.728 279.17L124.876 288.951C122.385 293.97 114.78 291.205 116.095 285.758L118.658 275.145C118.718 274.897 118.793 274.657 118.882 274.427C109.539 270.548 100.636 265.622 92.3636 259.733C92.2146 259.933 92.0504 260.125 91.871 260.308L84.2333 268.11C80.3137 272.115 73.9351 267.135 76.8691 262.361L82.5861 253.059C82.7201 252.841 82.8661 252.636 83.0227 252.443C75.3899 245.924 68.4393 238.505 62.3516 230.265C62.1397 230.417 61.9145 230.555 61.6762 230.68L52.0201 235.731C47.0549 238.328 42.5274 231.62 46.7931 227.987L55.0886 220.921C55.299 220.741 55.5181 220.581 55.7444 220.438C52.4123 214.974 49.4352 209.209 46.8556 203.163L28.542 227.441C26.1144 230.659 21.3801 231.003 18.8447 227.869C1.48942 206.415 -0.655431 178.041 1.04577 160.706C1.45482 156.538 5.81869 154.24 9.67754 155.868L37.1048 167.438C36.4185 162.115 36.0592 156.795 36.0153 151.502C35.728 151.504 35.4363 151.484 35.1419 151.441L24.3606 149.851C18.8171 149.034 19.097 140.946 24.6837 140.514L35.5491 139.673C35.8518 139.65 36.1501 139.65 36.4421 139.674C37.2595 129.528 39.2285 119.56 42.2658 109.955C41.9748 109.866 41.6866 109.752 41.4037 109.611L31.6219 104.758C26.6023 102.268 29.3677 94.6623 34.8145 95.9775L45.4293 98.5406C45.7417 98.616 46.0408 98.7157 46.3256 98.8369C50.2025 89.5099 55.123 80.6226 61.0026 72.3638C60.7452 72.1851 60.4987 71.9821 60.2662 71.7544L52.4623 64.1156C48.458 60.196 53.4382 53.8174 58.212 56.7514L67.5153 62.4692C67.792 62.6393 68.0483 62.8289 68.2837 63.0349C74.7927 55.4136 82.1994 48.4723 90.4235 42.3911C90.2268 42.1348 90.0491 41.8576 89.8935 41.56L84.842 31.9024C82.2449 26.9372 88.9524 22.4097 92.5859 26.6754L99.6533 34.9722C99.8748 35.2322 100.068 35.5056 100.233 35.7892C107.157 31.5625 114.564 27.9059 122.414 24.906C124.161 24.2384 125.914 23.6096 127.671 23.0193C127.559 22.7089 127.473 22.3836 127.416 22.0453L125.591 11.2717ZM62.309 191.659C85.1127 251.334 151.974 281.224 211.648 258.42C270.761 235.832 300.647 170.01 279.038 110.767C271.871 116.787 263.271 122.241 253.271 125.906C230.829 134.132 213.694 137.715 199.234 139.132C182.791 161.742 154.837 171.175 141.312 173.117L143.036 139.259C134.229 139.626 124.766 140.786 113.7 143.628C92.9153 148.968 73.5554 157.677 55.9834 167.789C57.2103 175.792 59.3014 183.788 62.309 191.659ZM91.7892 194.572C86.2477 195.558 80.956 191.865 79.9699 186.323C78.9837 180.782 82.6766 175.49 88.2181 174.504C93.7595 173.518 99.0512 177.211 100.037 182.752C101.023 188.294 97.3306 193.586 91.7892 194.572ZM138.772 195.806C135.156 196.449 131.702 194.039 131.058 190.422C130.415 186.805 132.825 183.352 136.442 182.708C140.058 182.065 143.512 184.475 144.156 188.092C144.799 191.708 142.389 195.162 138.772 195.806ZM198.435 193.472C194.818 194.115 191.364 191.705 190.721 188.088C190.077 184.471 192.487 181.018 196.104 180.374C199.721 179.731 203.174 182.141 203.818 185.758C204.462 189.374 202.051 192.828 198.435 193.472ZM210.858 225.334C211.502 228.951 214.956 231.361 218.572 230.718C222.189 230.074 224.599 226.62 223.956 223.004C223.312 219.387 219.858 216.977 216.242 217.62C212.625 218.264 210.215 221.718 210.858 225.334ZM141.136 241.571C137.519 242.215 134.065 239.805 133.422 236.188C132.778 232.571 135.188 229.117 138.805 228.474C142.422 227.83 145.875 230.24 146.519 233.857C147.163 237.474 144.752 240.928 141.136 241.571ZM105.238 213.457C105.882 217.074 109.336 219.484 112.953 218.841C116.569 218.197 118.979 214.743 118.336 211.127C117.692 207.51 114.239 205.1 110.622 205.743C107.005 206.387 104.595 209.841 105.238 213.457ZM170.184 215.601C166.567 216.244 163.113 213.834 162.47 210.217C161.826 206.6 164.236 203.147 167.853 202.503C171.47 201.859 174.923 204.27 175.567 207.886C176.211 211.503 173.8 214.957 170.184 215.601ZM226.964 188.392C227.95 193.933 233.242 197.626 238.783 196.64C244.325 195.654 248.017 190.362 247.031 184.821C246.045 179.279 240.753 175.586 235.212 176.572C229.67 177.559 225.978 182.85 226.964 188.392ZM169.916 240.048C170.903 245.59 176.194 249.283 181.736 248.296C187.277 247.31 190.97 242.019 189.984 236.477C188.998 230.935 183.706 227.243 178.165 228.229C172.623 229.215 168.93 234.507 169.916 240.048ZM247.841 83.6708C249.881 92.6323 244.591 101.477 236.027 103.427C227.462 105.376 218.866 99.6914 216.826 90.7299C214.787 81.7683 220.076 72.9234 228.641 70.974C237.205 69.0247 245.801 74.7092 247.841 83.6708Z" fill="url(#paint0_linear_889_1735)"/>
<path d="M236.676 95.6404C240.534 94.7625 242.839 90.4425 241.826 85.9914C240.813 81.5404 236.865 78.6438 233.008 79.5217C229.15 80.3996 226.845 84.7196 227.858 89.1707C228.871 93.6218 232.819 96.5184 236.676 95.6404Z" fill="#4A98EA"/>
<path fill-rule="evenodd" clip-rule="evenodd" d="M719.362 90.117C719.362 57.0405 746.183 30.2266 779.27 30.2266V59.4808C762.345 59.4808 748.624 73.1971 748.624 90.117V90.1184H779.269V119.373H748.624V209.899H719.362V90.117ZM706.207 31.0956H706.206C673.12 31.0956 646.298 57.9085 646.297 90.9843H646.296V210.766H675.559V90.9861H675.56C675.56 74.0662 689.281 60.3499 706.206 60.3499H706.207V31.0956ZM440.254 181.511C457.179 181.511 470.9 167.795 470.9 150.875C470.9 133.955 457.179 120.238 440.254 120.238C423.329 120.238 409.609 133.955 409.609 150.875C409.609 167.795 423.329 181.511 440.254 181.511ZM440.254 210.765C429.056 210.765 418.575 207.693 409.609 202.347V270.227H380.346V150.875C380.346 117.798 407.168 90.9841 440.254 90.9841C473.341 90.9841 500.163 117.798 500.163 150.875C500.163 183.951 473.341 210.765 440.254 210.765ZM633.136 90.9841H603.873V150.874C603.872 167.793 590.153 181.509 573.228 181.509C556.303 181.509 542.583 167.793 542.583 150.874V150.873V150.872V90.9842H513.32V150.872V150.873V150.874C513.32 183.95 540.142 210.763 573.228 210.763C606.314 210.763 633.136 183.949 633.136 150.873V150.872L633.136 90.9841ZM675.56 90.9861L675.561 120.24H706.206V90.9854L675.56 90.9861ZM898.933 112.363C904.425 119.157 908.326 127.021 910.432 135.38L912.244 149.482C912.246 149.656 912.247 149.831 912.247 150.006L912.247 150.008C912.246 155.053 911.622 159.953 910.447 164.634H898.549V164.636H825.402C830.595 174.174 840.71 180.647 852.337 180.647C860.138 180.647 867.257 177.734 872.667 172.937L892.075 194.828C881.818 203.916 868.755 209.213 855.063 209.836C841.372 210.459 827.881 206.371 816.841 198.252C805.801 190.134 797.879 178.477 794.396 165.225C790.914 151.973 792.082 137.929 797.705 125.434C803.329 112.939 813.068 102.75 825.298 96.5652C837.527 90.3808 851.509 88.5755 864.909 91.4504C878.309 94.3254 890.318 101.707 898.933 112.363ZM825.402 135.382C830.595 125.844 840.71 119.371 852.337 119.371C863.965 119.371 874.079 125.844 879.273 135.382H825.402ZM954.664 150.87C954.664 133.983 968.332 120.287 985.211 120.234V90.9799C952.17 91.0331 925.402 117.827 925.402 150.87V150.871L954.664 150.871V150.87ZM925.402 210.763H954.664V150.873L925.402 150.873V210.763Z" fill="white"/>
<defs>
<linearGradient id="paint0_linear_889_1735" x1="187.883" y1="0.227533" x2="319.227" y2="213.903" gradientUnits="userSpaceOnUse">
<stop offset="0.0677083" stop-color="#874FFF"/>
<stop offset="0.463542" stop-color="#36AFE2"/>
<stop offset="0.859375" stop-color="#41FF54"/>
</linearGradient>
</defs>
</svg>
