<svg width="158" height="22" viewBox="0 0 158 22" fill="none" xmlns="http://www.w3.org/2000/svg">
<rect x="21.3965" y="6.69141" width="6.61148" height="3.27884" fill="#B9AAFD"/>
<rect x="25.2529" y="12.1543" width="6.61148" height="3.82531" fill="white"/>
<rect x="13.1318" y="0.679688" width="6.61148" height="3.27884" fill="white"/>
<rect x="25.2529" y="18.167" width="6.61148" height="2.18589" fill="#B9AAFD"/>
<rect x="17.5391" y="12.1543" width="6.06053" height="3.82531" fill="white"/>
<rect x="17.5391" y="18.167" width="6.06053" height="2.18589" fill="white"/>
<rect x="9.27539" y="12.1543" width="6.06053" height="3.82531" fill="#B9AAFD"/>
<rect x="9.27539" y="18.167" width="6.06053" height="2.18589" fill="white"/>
<rect x="1.01074" y="12.1543" width="6.61148" height="3.82531" fill="white"/>
<rect x="4.86719" y="6.69141" width="6.61148" height="3.27884" fill="white"/>
<rect x="1.01074" y="18.167" width="6.61148" height="2.18589" fill="white"/>
<path d="M42.748 20.8138V0.675781H47.342L52.6825 19.289H53.0558L58.3963 0.675781H62.9903V20.8138H60.6646V2.25805H60.2626L54.9508 20.8138H50.7875L45.4757 2.25805H45.0737V20.8138H42.748Z" fill="white"/>
<path d="M73.9077 20.8138V0.675781H86.2827V2.86219H76.3195V9.59404H85.4788V11.7805H76.3195V18.6274H86.4263V20.8138H73.9077Z" fill="white"/>
<path d="M96.4032 20.8138V0.675781H104.529C105.773 0.675781 106.864 0.89634 107.802 1.33746C108.759 1.7594 109.506 2.37313 110.042 3.17865C110.578 3.96499 110.845 4.91435 110.845 6.02674V6.34319C110.845 7.66655 110.53 8.7118 109.898 9.47897C109.266 10.2461 108.52 10.764 107.658 11.0325V11.4352C108.348 11.4544 108.912 11.6846 109.352 12.1257C109.812 12.5476 110.042 13.1901 110.042 14.0532V20.8138H107.658V14.3409C107.658 13.7655 107.496 13.3244 107.17 13.0175C106.864 12.7106 106.395 12.5572 105.763 12.5572H98.815V20.8138H96.4032ZM98.815 10.3708H104.299C105.62 10.3708 106.634 10.0543 107.343 9.42143C108.07 8.76934 108.434 7.86793 108.434 6.71718V6.5158C108.434 5.36506 108.08 4.47323 107.371 3.84032C106.663 3.18824 105.639 2.86219 104.299 2.86219H98.815V10.3708Z" fill="white"/>
<path d="M120.833 20.8138V0.675781H123.245V9.4502H123.647L132.146 0.675781H135.362L125.571 10.6297L135.706 20.8138H132.404L123.647 11.8668H123.245V20.8138H120.833Z" fill="white"/>
<path d="M144.675 20.8138V0.675781H147.087V18.6274H157.251V20.8138H144.675Z" fill="white"/>
</svg>
